<?xml version="1.0" standalone="no"?>
<!DOCTYPE svg PUBLIC "-//W3C//DTD SVG 20010904//EN"
 "http://www.w3.org/TR/2001/REC-SVG-20010904/DTD/svg10.dtd">
<svg version="1.0" xmlns="http://www.w3.org/2000/svg"
 width="480.000000pt" height="640.000000pt" viewBox="0 0 480.000000 640.000000"
 preserveAspectRatio="xMidYMid meet">

<g transform="translate(0.000000,640.000000) scale(0.100000,-0.100000)"
fill="#000000" stroke="none">
<path d="M0 5250 l0 -1150 25 -10 c14 -5 25 -14 25 -20 0 -5 7 -10 15 -10 9 0
15 -9 15 -22 0 -33 10 -44 57 -64 46 -20 53 -34 41 -78 -5 -21 -3 -35 6 -45
33 -38 45 -79 40 -128 -5 -37 -3 -52 9 -61 8 -7 17 -9 20 -5 3 5 8 105 11 223
4 118 11 256 16 305 5 50 10 136 10 193 0 56 4 102 9 102 12 0 23 -141 16
-205 -9 -88 -14 -701 -5 -685 6 13 17 102 45 380 2 25 9 62 15 83 l11 38 87
-5 c48 -3 127 -5 175 -5 58 -1 86 -5 82 -11 -4 -7 3 -8 22 -4 15 4 30 11 31
16 2 5 14 -2 25 -16 21 -24 22 -34 22 -286 0 -143 2 -260 5 -260 5 0 6 -12 10
-120 4 -106 1 -152 -10 -145 -9 5 -14 -16 -13 -52 1 -7 -3 -11 -7 -8 -4 3 -11
-17 -15 -43 -3 -26 -22 -79 -41 -119 -19 -39 -34 -79 -34 -88 0 -10 -5 -13
-12 -9 -7 4 -8 3 -4 -4 4 -6 -2 -28 -13 -49 -17 -35 -26 -88 -22 -137 1 -12 6
-16 17 -12 12 5 15 2 10 -10 -3 -8 -6 -20 -6 -25 0 -5 -4 -9 -10 -9 -5 0 -10
7 -10 16 0 8 -4 12 -10 9 -6 -4 -7 1 -3 11 4 12 3 15 -6 10 -8 -5 -10 -18 -7
-35 4 -16 3 -21 -2 -13 -7 10 -13 6 -27 -15 -10 -15 -27 -35 -36 -44 -10 -9
-16 -19 -13 -22 3 -3 3 -19 -1 -35 -8 -37 -33 -49 -126 -58 -41 -3 -89 -13
-108 -20 -26 -11 -42 -12 -70 -3 -20 6 -71 9 -114 7 -74 -3 -77 -2 -77 20 0
12 -4 22 -8 22 -16 0 -30 -23 -24 -38 4 -11 1 -14 -11 -9 -14 5 -17 0 -17 -27
0 -19 6 -36 13 -39 7 -2 12 -23 12 -57 0 -33 5 -55 13 -57 6 -3 12 2 12 11 0
9 5 16 10 16 13 0 13 26 -2 49 -6 11 -8 26 -3 37 4 11 7 25 6 31 -1 8 5 10 14
6 14 -5 15 -15 10 -55 -5 -31 -3 -54 4 -62 16 -19 26 -113 14 -128 -6 -7 -13
-25 -17 -40 -5 -21 -3 -28 9 -28 8 0 15 -7 15 -15 0 -16 -34 -55 -48 -55 -5 0
-15 -11 -22 -25 -7 -14 -22 -25 -32 -25 -17 0 -18 -26 -18 -637 0 -351 4 -644
8 -651 5 -7 5 -39 1 -72 -7 -46 -5 -67 8 -97 9 -21 18 -62 19 -91 3 -47 1 -55
-16 -59 -19 -5 -20 -15 -20 -214 l0 -209 503 0 c441 0 506 2 533 17 24 12 46
14 107 8 42 -3 77 -11 77 -16 0 -12 2192 -12 2245 1 22 5 74 12 116 16 62 5
78 3 91 -10 12 -11 35 -16 77 -16 58 0 61 1 61 24 0 21 36 56 57 56 4 0 1 -4
-7 -10 -18 -11 -13 -16 28 -25 30 -6 34 -4 45 24 6 17 18 31 25 31 8 0 12 -6
9 -14 -4 -10 4 -19 23 -28 16 -7 32 -23 35 -35 3 -13 10 -23 15 -23 13 0 13
30 0 50 -6 10 -5 22 4 35 17 26 0 55 -33 58 -13 1 -21 8 -21 20 0 12 -6 17
-17 15 -11 -2 -17 -11 -15 -21 2 -9 -2 -17 -8 -17 -5 0 -10 4 -10 8 0 5 -11
14 -25 20 -14 6 -25 8 -25 3 0 -4 -25 -6 -57 -3 -45 4 -59 1 -69 -12 -11 -16
-13 -16 -23 1 -8 13 -13 15 -19 6 -4 -7 -19 -12 -32 -12 -14 -1 -36 -1 -49 -1
-13 0 -30 -5 -37 -10 -8 -8 -14 -8 -19 0 -5 8 -11 8 -20 0 -7 -6 -48 -13 -91
-17 -115 -9 -118 -9 -134 -16 -18 -7 -97 -7 -157 -1 -29 4 -43 10 -43 20 0 22
31 30 42 10 5 -9 12 -15 16 -12 4 2 57 7 117 10 124 8 153 11 176 21 10 3 20
1 24 -5 5 -8 11 -8 19 -1 7 6 32 12 55 15 23 2 44 6 48 10 3 3 23 3 43 0 23
-4 40 -2 44 5 4 6 25 11 47 11 41 0 99 23 99 40 0 12 97 5 113 -9 8 -6 57 -3
142 10 72 11 146 20 165 21 49 1 80 15 80 33 0 12 -6 15 -20 10 -11 -4 -39 -8
-63 -10 -23 -1 -89 -8 -147 -14 -172 -18 -220 -20 -220 -11 0 13 158 33 242
30 26 0 60 5 75 13 15 7 44 13 63 12 32 -1 49 9 50 28 0 4 -24 5 -52 2 -29 -4
-74 -8 -100 -10 -204 -15 -594 -61 -763 -90 -102 -17 -155 -19 -155 -6 0 9 58
20 145 27 28 2 64 9 81 15 18 5 66 11 108 12 42 1 76 5 76 10 0 4 20 7 44 7
24 0 65 4 92 9 27 5 72 12 99 15 137 15 172 18 189 18 11 -1 32 8 48 19 15 11
33 17 39 13 6 -4 27 -10 46 -14 27 -7 39 -4 53 10 10 10 21 16 24 12 3 -3 6 0
6 6 0 7 -16 12 -40 12 -22 0 -40 5 -40 11 0 5 -3 8 -8 6 -15 -10 -97 -11 -97
-2 0 18 -16 35 -26 29 -6 -3 -9 -15 -7 -27 3 -23 -23 -34 -107 -43 -27 -3 -56
-7 -63 -9 -7 -3 -24 2 -37 11 -24 15 -71 11 -60 -6 7 -12 -27 -18 -50 -9 -19
7 -18 8 3 8 13 1 20 5 17 11 -4 6 5 10 19 10 22 0 26 5 26 29 0 17 -4 33 -10
36 -5 3 -10 18 -10 33 1 26 1 26 16 7 15 -20 15 -20 30 -1 21 29 18 56 -6 56
-17 0 -20 7 -20 40 0 22 -4 40 -10 40 -5 0 -10 -18 -10 -40 l0 -40 -35 17
c-19 9 -35 20 -35 23 0 3 16 14 35 23 19 9 35 21 35 27 0 5 9 10 20 10 13 0
20 -7 20 -20 0 -11 9 -28 20 -37 11 -10 20 -23 20 -30 0 -18 19 -16 26 2 7 18
71 17 78 -2 3 -7 12 -13 21 -13 11 0 15 11 15 40 0 22 5 40 10 40 6 0 10 -11
10 -25 0 -32 18 -32 26 0 7 27 -9 55 -31 55 -7 0 -15 11 -17 25 -4 19 -1 25
13 25 17 0 19 8 19 70 0 38 -7 94 -15 125 -13 52 -13 59 3 83 l17 26 3 -31 c5
-46 36 -41 53 9 8 26 18 38 31 38 10 0 18 7 18 16 0 10 6 13 19 9 14 -4 20 0
25 19 3 13 3 33 -1 43 -6 17 -5 17 15 -1 12 -11 22 -25 22 -33 0 -7 4 -13 8
-13 8 0 32 -43 32 -55 0 -12 -20 -3 -42 20 -21 21 -27 23 -32 10 -3 -8 -1 -15
5 -15 6 0 9 -10 8 -22 -1 -13 0 -30 3 -38 3 -8 11 -34 18 -57 7 -24 17 -43 22
-43 4 0 5 -18 2 -40 -6 -36 -4 -40 14 -40 11 0 23 6 26 13 5 9 7 9 12 0 3 -7
19 -13 35 -13 26 0 28 2 23 30 -4 16 -4 36 -1 45 8 21 37 8 37 -17 0 -16 5
-19 23 -14 20 5 24 0 39 -57 26 -94 31 -127 19 -127 -5 0 -13 5 -16 10 -10 15
-23 12 -28 -7 -3 -10 -5 -1 -6 19 -1 33 -6 40 -41 58 l-40 20 0 -20 c0 -16 -7
-20 -30 -20 -16 0 -30 -5 -30 -11 0 -6 9 -8 20 -4 20 6 24 -5 23 -52 -1 -7 5
-13 12 -13 8 0 16 -17 20 -40 4 -22 10 -42 14 -45 5 -2 14 -25 21 -50 7 -25
17 -48 21 -51 5 -3 9 -25 9 -50 0 -24 4 -52 9 -62 33 -65 43 -182 16 -182 -8
0 -12 -6 -9 -14 3 -8 -1 -27 -9 -43 -8 -15 -13 -41 -11 -57 2 -22 0 -26 -9
-17 -15 15 -27 14 -27 -3 0 -8 -10 -17 -22 -19 -13 -2 68 -5 180 -6 l202 -1 0
107 c0 107 -19 206 -47 248 -7 11 -13 32 -13 47 0 15 -4 30 -10 33 -14 9 -12
147 4 230 8 39 25 102 40 140 21 56 26 88 26 163 0 55 -4 92 -10 92 -5 0 -10
7 -10 15 0 8 4 15 10 15 6 0 10 186 10 533 l0 532 -28 12 c-15 7 -53 21 -84
33 -32 12 -61 26 -64 32 -11 17 42 2 159 -47 16 -7 17 97 17 2104 l0 2111
-2400 0 -2400 0 0 -1150z m2759 -71 c16 -12 33 -19 39 -15 5 3 19 -5 32 -19
12 -13 35 -29 51 -35 15 -7 31 -21 34 -31 4 -12 16 -19 31 -19 13 0 24 -4 24
-10 0 -5 6 -10 13 -10 8 0 40 -26 72 -57 33 -32 62 -57 66 -56 3 1 14 -22 24
-52 9 -30 21 -53 27 -52 20 4 55 -107 61 -198 4 -50 10 -112 13 -138 8 -61 -7
-95 -54 -126 -34 -21 -45 -23 -124 -18 -98 5 -125 -5 -114 -41 4 -12 14 -22
21 -22 23 0 65 -22 65 -34 0 -7 19 -10 47 -10 74 2 134 -16 147 -46 6 -14 15
-28 20 -31 20 -15 -5 -76 -46 -113 -33 -30 -39 -40 -27 -47 9 -5 -53 -8 -160
-6 l-174 4 -33 -31 c-38 -34 -42 -51 -17 -60 12 -5 13 -10 5 -18 -8 -8 -15 -8
-25 1 -11 9 -17 8 -27 -4 -18 -22 -5 -45 27 -47 48 -2 86 -6 134 -13 45 -7 46
-6 82 36 24 28 37 37 37 26 0 -9 4 -17 10 -17 5 0 7 -7 4 -15 -4 -8 -12 -15
-20 -15 -31 0 1 -29 44 -40 94 -24 100 -28 116 -84 17 -58 33 -205 21 -194 -4
4 -17 3 -28 -3 -17 -9 -19 -18 -13 -56 4 -31 -1 -74 -15 -132 -22 -91 -58
-203 -70 -211 -3 -3 -10 -16 -14 -29 -24 -77 -127 -261 -177 -316 -100 -111
-390 -397 -426 -420 -46 -31 -49 -42 -5 -28 15 5 42 6 58 2 17 -4 27 -7 22 -8
-16 -2 23 -69 65 -113 39 -39 46 -43 55 -29 9 13 13 14 24 3 12 -11 11 -15 -1
-23 -12 -8 -12 -12 -2 -16 10 -4 10 -8 1 -19 -8 -10 -6 -21 9 -47 12 -18 25
-52 31 -76 9 -41 8 -44 -28 -79 -23 -23 -67 -49 -112 -66 -56 -22 -89 -44
-136 -89 -39 -37 -63 -68 -63 -81 1 -20 2 -20 14 -4 7 10 16 15 19 11 4 -3 2
-12 -4 -20 -9 -10 -8 -13 2 -13 13 0 27 12 99 86 62 63 176 99 230 71 20 -10
30 -10 50 0 13 6 42 10 65 8 22 -2 67 -7 99 -10 33 -3 61 -7 63 -8 9 -9 -11
-67 -23 -67 -8 0 -14 -4 -14 -9 0 -5 -32 -33 -70 -61 -39 -29 -68 -55 -65 -58
2 -3 23 1 46 8 37 13 43 12 54 -3 7 -9 21 -16 31 -16 16 1 16 2 2 6 -11 3 -15
10 -11 20 4 10 2 14 -5 9 -6 -3 -13 -2 -16 3 -3 5 23 27 58 50 35 22 66 46 69
53 2 7 8 10 12 5 5 -4 -1 -17 -12 -30 -26 -28 -40 -86 -21 -89 7 0 18 -2 23
-2 33 -4 33 -18 0 -48 -23 -20 -35 -39 -35 -57 0 -19 -3 -22 -9 -12 -8 12 -14
13 -35 3 -14 -6 -26 -16 -26 -21 0 -6 -6 -8 -12 -6 -16 6 -90 -63 -83 -76 10
-14 23 -11 29 9 7 22 53 45 59 29 2 -6 14 1 27 16 14 16 34 27 50 27 14 0 36
7 48 16 12 8 26 12 32 9 6 -3 7 1 4 9 -5 12 -11 13 -24 6 -36 -19 -40 -10 -8
19 31 26 78 49 78 37 0 -3 -10 -14 -22 -26 -21 -19 -21 -20 -2 -20 11 0 34 14
52 30 18 16 40 30 47 30 9 0 12 6 8 18 -5 14 -3 15 7 5 10 -9 17 -10 27 -2 18
16 16 4 -3 -15 -26 -27 -84 -117 -90 -142 -3 -13 -12 -24 -18 -24 -7 0 -23
-13 -36 -30 -14 -16 -30 -29 -36 -30 -15 0 -64 -57 -64 -74 0 -10 -22 -16 -82
-22 -46 -5 -91 -7 -101 -6 -10 1 -27 -2 -37 -8 -12 -6 -20 -6 -22 0 -2 6 -17
5 -40 -2 -32 -10 -38 -16 -38 -40 0 -21 5 -28 20 -28 29 0 25 -25 -7 -39 -29
-13 -108 -32 -133 -32 -8 0 -37 2 -65 5 -86 9 -135 7 -135 -5 0 -5 6 -9 13 -9
14 0 40 -44 31 -53 -10 -10 -44 6 -44 20 0 13 -3 13 -15 3 -14 -12 -14 -15 1
-31 16 -18 16 -19 -6 -19 -14 0 -39 16 -62 40 -22 22 -44 40 -49 40 -5 0 -9 9
-9 20 0 12 -10 24 -24 30 -13 5 -27 14 -31 19 -3 6 -15 11 -26 11 -10 0 -19 3
-19 8 0 7 -48 32 -63 32 -14 0 -37 27 -37 44 0 9 5 15 12 13 18 -3 37 -21 31
-30 -7 -12 22 -8 35 5 9 9 15 10 20 2 9 -14 44 -24 102 -30 24 -2 53 -12 63
-22 18 -16 20 -16 32 1 12 17 14 17 29 -5 13 -18 16 -19 16 -6 0 15 11 17 77
16 52 -1 78 2 81 10 2 7 19 12 37 12 18 0 52 9 76 19 24 11 46 18 50 15 4 -2
5 5 2 16 -3 11 -14 20 -24 20 -20 0 -26 15 -9 25 5 3 22 -6 37 -21 l27 -27 17
22 c9 11 24 21 31 21 15 0 38 39 38 64 0 10 -10 10 -45 2 -25 -6 -45 -14 -45
-18 0 -5 -7 -8 -15 -8 -18 0 -20 20 -2 20 6 0 29 16 50 34 36 33 47 56 27 56
-5 0 -10 9 -10 21 0 15 -4 19 -16 15 -10 -4 -22 1 -30 11 -10 14 -15 16 -25 5
-11 -10 -10 -12 3 -12 33 0 29 -49 -4 -50 -5 0 -9 -10 -9 -22 -1 -17 -2 -19
-6 -5 -2 9 -11 17 -19 17 -8 0 -14 5 -14 11 0 6 -16 -1 -36 -16 -29 -22 -49
-28 -102 -32 -92 -6 -112 -11 -112 -29 0 -8 -7 -17 -15 -20 -8 -4 -15 -10 -15
-15 0 -5 -10 -20 -22 -34 -17 -19 -31 -25 -64 -25 -53 0 -68 25 -21 36 18 4
27 9 20 11 -18 6 7 43 29 43 20 0 25 20 6 21 -7 0 -42 2 -78 3 -36 1 -80 6
-97 10 -32 8 -33 8 -33 -25 0 -31 -1 -32 -17 -16 -16 16 -18 15 -30 -11 -12
-25 -13 -22 -10 35 3 60 2 62 -32 90 -19 15 -52 44 -73 64 -37 34 -38 37 -26
70 6 19 14 36 17 39 4 3 14 17 24 32 14 23 15 39 8 121 -9 96 -21 127 -99 269
-39 70 -36 73 90 81 89 5 258 52 258 72 0 6 -21 11 -48 12 -72 4 -139 34 -196
90 -72 70 -142 154 -150 180 -4 12 -21 37 -39 55 -34 36 -97 126 -139 198 -15
25 -37 56 -50 70 -29 32 -58 83 -58 103 0 8 -7 20 -15 27 -8 7 -15 27 -15 46
0 18 -4 36 -10 39 -5 3 -10 15 -10 26 0 10 -4 19 -10 19 -5 0 -13 18 -16 40
-4 22 -10 40 -14 40 -4 0 -13 30 -19 68 -6 37 -14 78 -17 92 -12 47 -16 303
-5 324 5 12 12 37 15 56 11 79 28 145 41 154 8 6 15 33 17 60 3 46 5 50 33 53
44 6 92 6 160 2 33 -2 81 0 108 4 41 7 48 6 54 -10 10 -28 23 -33 89 -33 58 0
64 2 93 35 17 19 32 35 35 35 9 0 46 -69 44 -81 -2 -8 7 -15 18 -17 19 -3 22
3 26 45 5 45 3 50 -35 86 -22 20 -42 37 -45 37 -3 0 -15 8 -26 18 -24 22 -175
72 -291 98 -44 9 -85 22 -91 28 -17 18 -9 87 15 128 20 33 39 49 66 53 6 0 22
5 38 9 16 5 32 4 40 -2 6 -5 35 -12 62 -16 28 -3 64 -10 81 -15 17 -5 37 -5
45 0 8 5 22 3 35 -6 11 -7 25 -10 31 -7 14 10 36 53 29 59 -12 12 -115 36
-201 47 -85 11 -143 35 -167 70 -3 5 -13 2 -23 -7 -18 -18 -35 -22 -35 -8 0
10 27 79 39 102 5 9 12 37 16 63 4 25 11 46 15 46 5 0 12 10 15 23 4 12 18 46
31 75 13 29 24 57 24 62 0 5 13 18 28 28 15 11 34 33 42 49 8 15 28 39 44 52
15 14 34 31 42 38 7 7 17 12 21 11 12 -4 145 53 166 70 14 13 17 13 17 1 0
-11 27 -15 131 -17 83 -2 136 1 144 8 7 6 61 13 121 16 60 3 111 7 113 10 9 8
22 4 50 -17z m-2472 -551 c-3 -7 -5 -2 -5 12 0 14 2 19 5 13 2 -7 2 -19 0 -25z
m15 -73 c2 -19 0 -35 -4 -35 -4 0 -8 16 -8 35 0 19 2 35 4 35 2 0 6 -16 8 -35z
m4438 -146 c0 -5 -6 -9 -13 -9 -8 0 -22 -9 -32 -20 -22 -24 -39 -16 -24 11 17
32 69 46 69 18z m-3911 -214 c23 -13 -8 -43 -51 -49 -61 -8 -376 -11 -384 -3
-4 3 -4 17 0 31 6 23 11 25 69 28 103 5 355 0 366 -7z m596 -57 c-6 -68 -11
-88 -18 -77 -8 12 6 149 15 149 7 0 8 -24 3 -72z m2335 -212 c0 -2 -9 -6 -20
-9 -11 -3 -18 -1 -14 4 5 9 34 13 34 5z m900 -87 c79 -142 115 -297 114 -489
-2 -258 -3 -300 -15 -322 -7 -12 -15 -61 -20 -108 -4 -47 -9 -94 -11 -105 -2
-14 3 -21 20 -23 33 -5 27 -22 -8 -22 -37 0 -50 23 -50 86 0 42 -35 218 -60
299 -70 234 -106 682 -58 742 14 17 65 -16 88 -58z m-844 41 c15 -6 36 -19 48
-30 11 -10 36 -31 53 -45 38 -31 50 -70 55 -179 3 -85 6 -80 -59 -110 -24 -10
-33 -11 -33 -3 0 7 -5 53 -9 103 -11 114 -37 188 -78 231 -18 18 -33 35 -33
38 0 8 26 6 56 -5z m-81 -184 c9 -13 15 -41 15 -62 -1 -22 2 -72 6 -111 9
-100 3 -106 -95 -97 -42 3 -77 7 -78 9 -9 7 40 191 57 212 11 14 20 35 20 47
0 51 43 52 75 2z m-455 -146 c0 -5 -10 -10 -22 -10 -19 0 -20 2 -8 10 19 13
30 13 30 0z m594 -77 c-4 -10 -9 -55 -12 -101 l-4 -83 -26 26 c-38 38 -32 114
14 159 21 22 38 21 28 -1z m86 -325 c0 -4 -9 -3 -20 4 -11 7 -20 19 -20 27 0
11 5 10 20 -4 11 -10 20 -22 20 -27z m-3140 -2 c0 -3 -4 -8 -10 -11 -5 -3 -10
-1 -10 4 0 6 5 11 10 11 6 0 10 -2 10 -4z m3217 -129 c12 -33 20 -64 17 -68
-6 -11 15 -89 24 -89 4 0 7 -21 8 -47 0 -27 6 -75 13 -108 14 -66 8 -142 -14
-185 -23 -44 -82 -90 -115 -90 -17 0 -30 2 -30 5 0 2 20 13 45 24 49 21 81 64
92 121 12 66 -47 385 -88 475 -15 33 -25 64 -22 69 9 14 46 -42 70 -107z m470
-213 c-3 -3 -12 -4 -19 -1 -8 3 -5 6 6 6 11 1 17 -2 13 -5z m-64 -11 c-7 -2
-19 -2 -25 0 -7 3 -2 5 12 5 14 0 19 -2 13 -5z m3 -458 c14 -13 13 -15 -5 -15
-12 0 -21 6 -21 15 0 8 3 15 6 15 3 0 12 -7 20 -15z m125 -75 c24 -11 40 -20
34 -20 -14 0 -83 25 -91 33 -13 13 14 7 57 -13z m-141 -24 c0 -3 -4 -8 -10
-11 -5 -3 -10 -1 -10 4 0 6 5 11 10 11 6 0 10 -2 10 -4z m-4066 -81 c-22 -17
-34 -19 -34 -6 0 5 8 12 18 14 32 9 36 7 16 -8z m-74 -40 c0 -7 -72 -36 -78
-31 -2 3 11 12 29 20 37 16 49 19 49 11z m-110 -39 c0 -2 -7 -6 -15 -10 -8 -3
-15 -1 -15 4 0 6 7 10 15 10 8 0 15 -2 15 -4z m4278 -134 c2 -12 8 -22 13 -22
5 0 7 -17 3 -40 -4 -22 -2 -40 3 -40 5 0 9 -8 9 -17 1 -10 5 -31 9 -47 6 -21
5 -27 -4 -22 -6 4 -11 0 -11 -10 0 -16 -1 -16 -20 1 -15 14 -20 15 -20 4 1
-20 26 -50 35 -41 5 4 5 -1 2 -10 -3 -9 -1 -19 6 -22 7 -2 4 -5 -5 -5 -10 -1
-18 5 -18 13 0 8 -5 16 -11 18 -18 6 -27 153 -11 183 9 18 10 30 2 44 -14 27
-13 44 3 39 6 -3 13 -14 15 -26z m-4204 -37 c-4 -8 -8 -15 -10 -15 -2 0 -4 7
-4 15 0 8 4 15 10 15 5 0 7 -7 4 -15z m26 -55 c0 -5 -7 -10 -15 -10 -8 0 -15
5 -15 10 0 6 7 10 15 10 8 0 15 -4 15 -10z m-18 -75 c-12 -27 -7 -55 12 -55
13 0 -15 -20 -29 -20 -5 0 -9 14 -9 30 1 17 2 47 3 67 1 35 2 36 18 21 14 -14
14 -22 5 -43z m4378 -120 c0 -8 -7 -15 -15 -15 -26 0 -18 20 13 29 1 1 2 -6 2
-14z m-389 -32 c-9 -16 -10 -14 -11 12 0 21 3 26 11 18 8 -8 8 -16 0 -30z
m342 -69 c8 -8 -3 -34 -14 -34 -5 0 -9 9 -9 20 0 19 11 26 23 14z m-346 -39
c-15 -16 -19 -13 -11 9 3 9 10 13 15 10 5 -3 3 -11 -4 -19z m314 -42 c1 -19 1
-132 0 -147 -1 -6 -4 -6 -10 0 -8 8 -14 78 -12 142 1 26 20 30 22 5z m-1879
-45 c-6 -6 -15 -7 -22 -3 -8 5 -6 11 7 20 20 15 32 0 15 -17z m1605 -10 c-3
-8 -6 -5 -6 6 -1 11 2 17 5 13 3 -3 4 -12 1 -19z m440 0 c-3 -8 -6 -5 -6 6 -1
11 2 17 5 13 3 -3 4 -12 1 -19z m-2187 -38 c0 -11 -4 -20 -10 -20 -5 0 -10 -6
-10 -14 0 -19 -47 -49 -55 -35 -4 6 -5 12 -3 14 2 2 17 20 33 40 34 40 45 44
45 15z m175 -10 c3 -5 1 -10 -4 -10 -6 0 -11 5 -11 10 0 6 2 10 4 10 3 0 8 -4
11 -10z m-688 -72 c-2 -13 -4 -3 -4 22 0 25 2 35 4 23 2 -13 2 -33 0 -45z
m2693 29 c-1 -12 -7 -33 -15 -47 -8 -14 -14 -35 -15 -48 0 -13 -8 -31 -17 -40
-15 -16 -16 -15 -10 17 4 18 7 42 7 52 0 11 7 19 16 19 11 0 14 6 9 20 -8 25
3 62 16 55 5 -4 9 -16 9 -28z m-2590 -7 c0 -11 -4 -20 -10 -20 -5 0 -10 9 -10
20 0 11 5 20 10 20 6 0 10 -9 10 -20z m457 14 c-3 -3 -12 -4 -19 -1 -8 3 -5 6
6 6 11 1 17 -2 13 -5z m1738 -14 c3 -5 1 -10 -4 -10 -6 0 -11 5 -11 10 0 6 2
10 4 10 3 0 8 -4 11 -10z m35 -107 c0 -19 -27 -16 -34 3 -3 9 -6 32 -5 52 l1
37 19 -40 c10 -22 19 -46 19 -52z m-2505 10 c5 -13 13 -23 18 -23 4 0 6 4 2 9
-3 5 0 13 6 17 9 5 10 0 6 -15 -6 -23 24 -64 31 -42 4 11 50 -8 80 -32 8 -6
24 -12 35 -14 38 -6 47 -12 47 -32 0 -11 9 -25 20 -31 16 -8 19 -17 14 -38 -4
-15 -13 -32 -20 -38 -17 -14 -18 -24 -3 -24 7 0 23 -12 36 -27 19 -19 27 -23
33 -13 14 22 49 -23 42 -55 l-5 -28 52 5 c48 5 51 4 51 -18 0 -17 -6 -24 -20
-24 -17 0 -20 -7 -20 -39 0 -38 0 -39 -46 -46 -25 -3 -48 -4 -52 -1 -3 3 3 6
14 6 16 0 19 8 20 60 2 50 -1 60 -15 60 -9 0 -26 7 -38 15 -13 9 -32 13 -46
10 -20 -5 -26 -2 -31 18 -3 14 -15 27 -27 30 -11 3 -23 15 -26 26 -3 12 -10
21 -17 21 -19 0 -78 61 -72 76 5 13 -31 44 -66 57 -11 4 -18 17 -18 32 0 14
-4 25 -9 25 -9 0 -41 71 -41 91 0 20 55 5 65 -18z m-605 -13 c0 -5 -4 -10 -10
-10 -5 0 -10 5 -10 10 0 6 5 10 10 10 6 0 10 -4 10 -10z m3290 -155 c0 -8 -4
-15 -10 -15 -5 0 -10 7 -10 15 0 8 5 15 10 15 6 0 10 -7 10 -15z m-2030 -4 c0
-5 -7 -11 -15 -15 -15 -5 -20 5 -8 17 9 10 23 9 23 -2z m1922 -26 c3 -14 1
-25 -3 -25 -5 0 -9 6 -9 14 0 8 -3 22 -7 32 -4 11 -3 15 4 11 6 -4 13 -18 15
-32z m-74 -40 c11 -14 24 -25 30 -25 11 0 27 -69 18 -77 -3 -3 -12 0 -20 6
-21 18 -34 6 -28 -24 2 -14 0 -25 -5 -25 -6 0 -13 30 -16 68 -3 37 -9 75 -12
85 -10 25 11 21 33 -8z m-1786 -77 c-9 -9 -12 -7 -12 12 0 19 3 21 12 12 9 -9
9 -15 0 -24z m1288 -14 c0 -8 -4 -14 -10 -14 -5 0 -10 -18 -10 -40 0 -36 3
-40 24 -40 21 0 24 -5 28 -45 2 -29 -1 -45 -8 -45 -14 0 -44 44 -44 65 0 8 -6
15 -14 15 -9 0 -12 7 -9 21 4 12 0 25 -8 30 -9 6 -10 12 -4 17 6 4 16 19 24
34 14 28 31 29 31 2z m-260 1 c0 -8 -4 -15 -10 -15 -5 0 -7 7 -4 15 4 8 8 15
10 15 2 0 4 -7 4 -15z m-860 -55 c0 -33 -3 -40 -20 -40 -13 0 -20 7 -20 20 0
11 5 20 10 20 6 0 10 9 10 20 0 11 5 20 10 20 6 0 10 -18 10 -40z m354 -6 c9
-23 7 -34 -5 -34 -6 0 -19 -10 -30 -22 l-18 -23 -1 23 c0 12 4 22 9 22 5 0 12
11 15 25 7 28 21 33 30 9z m-68 -42 c-23 -23 -33 -6 -10 19 12 13 20 16 22 9
3 -7 -3 -19 -12 -28z m-176 -31 c0 -5 3 -16 6 -25 4 -12 0 -16 -16 -16 -16 0
-20 4 -16 16 3 9 6 20 6 25 0 5 5 9 10 9 6 0 10 -4 10 -9z m280 -31 c0 -5 -5
-10 -11 -10 -5 0 -7 5 -4 10 3 6 8 10 11 10 2 0 4 -4 4 -10z m465 -38 c-3 -4
-10 0 -15 8 -6 9 -5 17 3 22 13 8 24 -19 12 -30z m238 31 c-8 -2 -13 -22 -13
-44 0 -28 -4 -39 -15 -39 -11 0 -15 11 -15 39 0 38 9 49 40 49 10 0 11 -1 3
-5z m-93 -99 c0 -9 -5 -14 -12 -12 -18 6 -21 28 -4 28 9 0 16 -7 16 -16z m825
-11 c4 -16 9 -48 12 -73 3 -25 8 -47 13 -50 4 -3 3 -16 -1 -29 -13 -34 -20
-21 -25 43 -2 31 -11 67 -20 81 -16 24 -13 55 5 55 5 0 12 -12 16 -27z m-2225
-3 c0 -5 -4 -10 -10 -10 -5 0 -10 5 -10 10 0 6 5 10 10 10 6 0 10 -4 10 -10z
m1444 -160 c-2 -37 -3 -40 -14 -40 -5 0 -10 10 -10 23 0 13 -6 29 -12 36 -11
10 -8 12 12 9 20 -2 25 -8 24 -28z m823 -37 c-3 -10 -5 -4 -5 12 0 17 2 24 5
18 2 -7 2 -21 0 -30z m-894 -31 c9 -5 -39 -32 -56 -32 -6 0 -2 7 9 15 12 9 14
14 6 15 -7 0 -11 4 -7 10 5 8 25 5 48 -8z m57 -22 c0 -5 -15 -10 -32 -9 -31 1
-32 1 -8 9 35 11 40 11 40 0z m837 -22 c-3 -8 -6 -5 -6 6 -1 11 2 17 5 13 3
-3 4 -12 1 -19z m-1034 5 c-7 -2 -21 -2 -30 0 -10 3 -4 5 12 5 17 0 24 -2 18
-5z m-188 -23 c3 -5 -1 -10 -10 -10 -9 0 -13 5 -10 10 3 6 8 10 10 10 2 0 7
-4 10 -10z m-2518 -35 c-2 -5 -25 -11 -50 -13 -40 -3 -48 -7 -53 -28 -3 -13
-11 -24 -18 -24 -6 0 -22 -3 -34 -7 -21 -5 -23 -3 -20 18 2 17 11 25 32 29 17
3 29 8 28 13 -5 20 1 25 41 34 43 9 80 -2 74 -22z m103 0 c0 -8 -16 -13 -45
-13 -32 -1 -45 3 -45 13 0 7 8 15 18 17 30 6 72 -4 72 -17z m2280 15 c0 -5 -7
-10 -15 -10 -8 0 -15 5 -15 10 0 6 7 10 15 10 8 0 15 -4 15 -10z m76 -3 c4 -4
-5 -7 -19 -7 -15 0 -27 4 -27 8 0 10 36 9 46 -1z m-2601 -7 c-3 -5 -10 -10
-16 -10 -5 0 -9 5 -9 10 0 6 7 10 16 10 8 0 12 -4 9 -10z m393 -12 c-6 -18
-28 -21 -28 -4 0 9 7 16 16 16 9 0 14 -5 12 -12z m150 0 c-6 -18 -78 -19 -78
-2 0 10 13 14 41 14 28 0 39 -4 37 -12z m150 -10 c-7 -19 -38 -22 -38 -4 0 10
9 16 21 16 12 0 19 -5 17 -12z m42 8 c0 -3 -4 -8 -10 -11 -5 -3 -10 -1 -10 4
0 6 5 11 10 11 6 0 10 -2 10 -4z m64 -11 c-7 -17 -20 -20 -28 -6 -7 10 3 21
20 21 8 0 11 -6 8 -15z m96 -1 c10 -10 -22 -20 -50 -16 -31 4 -39 16 -17 26
12 5 58 -2 67 -10z m105 -4 c0 -7 -16 -14 -37 -16 -35 -3 -50 10 -33 28 11 11
70 0 70 -12z m1035 10 c-8 -5 -19 -10 -25 -10 -5 0 -3 5 5 10 8 5 20 10 25 10
6 0 3 -5 -5 -10z m-970 -21 c0 -5 -9 -9 -20 -9 -22 0 -27 16 -7 23 15 5 27 -1
27 -14z m49 -10 c-21 -13 -39 -11 -39 5 0 8 10 16 23 18 26 4 36 -10 16 -23z
m1325 14 c3 -8 22 -10 56 -7 39 3 51 2 48 -8 -3 -7 -21 -14 -42 -15 -43 -1
-51 -6 -42 -28 4 -13 15 -15 48 -10 24 4 63 8 88 9 25 2 78 6 118 11 47 5 72
4 72 -2 0 -15 -157 -33 -307 -36 -72 -1 -128 -4 -125 -7 4 -3 8 -17 10 -32 3
-26 0 -28 -35 -30 -21 -1 -51 -1 -66 0 -20 2 -26 -1 -21 -10 5 -8 2 -9 -10 -5
-10 4 -22 7 -27 7 -18 0 -9 32 11 37 28 7 25 23 -5 23 -18 0 -25 5 -25 20 0
11 6 23 13 25 11 4 91 10 192 15 36 1 37 2 17 11 -13 5 -27 7 -30 5 -4 -2 -52
-6 -107 -8 -97 -3 -100 -2 -103 20 -3 19 1 22 32 22 29 0 34 -3 30 -17 -5 -14
-4 -15 4 -4 17 24 198 37 206 14z m746 12 c0 -13 -62 -26 -216 -46 -91 -11
-168 -18 -171 -15 -12 11 8 20 50 23 39 3 79 8 247 31 88 13 90 13 90 7z
m-1891 -21 c1 -1 0 -8 -4 -14 -5 -8 -29 -9 -72 -6 -79 7 -101 18 -53 27 31 6
120 1 129 -7z m-1029 -9 c0 -15 -24 -25 -75 -30 -28 -2 -35 1 -35 14 0 26 6
28 60 30 37 0 50 -3 50 -14z m180 2 c0 -17 -20 -37 -37 -37 -16 0 -17 22 -1
38 16 16 38 15 38 -1z m980 4 c20 -4 46 -4 58 0 13 5 22 4 22 -1 0 -5 13 -7
29 -4 26 6 29 4 24 -14 -4 -18 -53 -39 -53 -23 0 9 -117 7 -126 -1 -4 -5 11
-8 34 -8 23 0 42 -5 42 -11 0 -5 5 -7 11 -4 6 4 28 8 50 9 31 1 39 -3 39 -16
0 -9 -5 -20 -10 -23 -8 -5 -7 -11 1 -21 6 -7 16 -11 22 -7 10 6 87 6 94 -1 2
-2 1 -11 -3 -20 -7 -19 -44 -22 -45 -3 0 9 -2 9 -6 0 -6 -17 -40 -17 -46 0 -4
9 -8 9 -15 -2 -6 -8 -17 -11 -26 -8 -13 5 -15 11 -6 26 13 25 13 34 0 26 -6
-3 -12 0 -15 7 -4 9 -32 13 -105 13 -55 0 -100 4 -100 8 0 5 -9 6 -20 2 -11
-3 -25 -3 -32 1 -7 4 -31 7 -55 5 -56 -3 -56 15 0 25 23 4 44 7 47 7 81 -14
151 -7 120 12 -8 5 -7 11 1 21 13 16 21 17 69 5z m647 -23 c17 -49 24 -111 15
-125 -10 -16 -61 -22 -217 -23 -160 -2 -158 -2 -149 11 4 7 -1 7 -16 -1 -15
-8 -26 -8 -32 -2 -13 13 28 55 45 46 7 -4 8 -3 4 2 -8 9 -16 10 -79 13 -21 1
-28 6 -28 21 0 11 7 20 15 20 8 0 15 5 15 10 0 6 -7 10 -15 10 -8 0 -15 7 -15
15 0 17 36 21 42 4 3 -9 10 -9 27 0 12 7 50 12 84 11 76 -1 64 -2 169 3 49 2
91 7 95 10 14 15 30 5 40 -25z m-1327 2 c0 -13 -28 -25 -38 -16 -3 4 0 11 8
16 20 13 30 12 30 0z m95 -20 c-7 -11 -81 -5 -78 6 3 14 46 22 66 12 10 -5 15
-13 12 -18z m55 0 c0 -5 -4 -10 -10 -10 -5 0 -10 5 -10 10 0 6 5 10 10 10 6 0
10 -4 10 -10z m60 0 c0 -5 -5 -10 -11 -10 -5 0 -7 5 -4 10 3 6 8 10 11 10 2 0
4 -4 4 -10z m48 -2 c-7 -19 -38 -22 -38 -4 0 10 9 16 21 16 12 0 19 -5 17 -12z
m62 -3 c-7 -8 -21 -15 -32 -15 -17 0 -18 3 -8 15 7 8 21 15 32 15 17 0 18 -3
8 -15z m-980 -15 c0 -11 -6 -20 -14 -20 -7 0 -28 -3 -46 -6 -28 -6 -32 -4 -28
12 2 13 15 21 38 25 19 4 38 7 43 8 4 0 7 -8 7 -19z m1030 11 c0 -12 -28 -22
-34 -12 -3 5 -3 11 1 15 9 9 33 7 33 -3z m-1130 -21 c-12 -22 -40 -27 -40 -7
0 19 10 27 32 27 16 0 17 -3 8 -20z m150 11 c0 -12 -20 -25 -27 -18 -7 7 6 27
18 27 5 0 9 -4 9 -9z m126 -12 c3 -5 -3 -9 -13 -9 -11 0 -24 -5 -31 -12 -9 -9
-13 -7 -18 6 -4 11 -2 21 6 26 14 9 48 2 56 -11z m334 11 c0 -6 6 -10 14 -8 8
2 15 0 15 -4 2 -23 0 -28 -14 -28 -8 0 -15 5 -15 12 0 6 -8 4 -19 -6 -31 -28
-58 3 -29 32 15 15 48 16 48 2z m-421 -21 c-15 -9 -32 -2 -24 11 3 5 13 6 21
3 12 -4 13 -8 3 -14z m565 -4 c-6 -16 -34 -21 -34 -7 0 13 11 22 26 22 8 0 11
-6 8 -15z m112 -20 c-3 -9 -14 -15 -23 -13 -24 4 -29 35 -6 40 24 6 37 -7 29
-27z m104 21 c0 -2 -3 -11 -6 -20 -9 -23 -24 -20 -24 4 0 11 7 20 15 20 8 0
15 -2 15 -4z m108 -23 c-4 -22 -38 -30 -38 -10 0 14 13 24 33 26 5 1 7 -7 5
-16z m190 11 c46 -9 30 -33 -21 -32 -51 0 -61 6 -46 24 13 16 23 17 67 8z
m-1194 -35 c-3 -5 -21 -9 -39 -9 -26 0 -33 4 -29 14 3 8 15 16 27 18 25 4 50
-10 41 -23z m1414 19 c21 1 32 -4 32 -14 0 -15 -43 -37 -48 -24 -1 4 -13 5
-26 3 -13 -3 -27 0 -31 7 -5 8 -10 8 -20 0 -8 -7 -20 -8 -27 -4 -7 5 -23 7
-35 5 -17 -2 -23 3 -23 18 0 20 4 20 73 15 39 -3 87 -6 105 -6z m1642 -3 c0
-8 -4 -15 -9 -15 -13 0 -22 16 -14 24 11 11 23 6 23 -9z m75 -5 c3 -5 2 -10
-4 -10 -5 0 -13 5 -16 10 -3 6 -2 10 4 10 5 0 13 -4 16 -10z m93 -36 c-14 -14
-15 -14 -10 11 3 19 8 23 15 16 8 -8 7 -16 -5 -27z m-3292 -40 c-5 -14 -9 -15
-19 -5 -9 9 -9 14 3 21 18 11 24 6 16 -16z m64 11 c0 -9 -9 -15 -25 -15 -26 0
-34 15 -12 23 23 10 37 7 37 -8z"/>
<path d="M2373 4016 c7 -19 -22 -64 -58 -92 -49 -37 -61 -61 -41 -83 9 -10 16
-29 16 -44 0 -14 5 -29 10 -32 6 -3 10 1 10 9 0 8 18 35 40 58 22 24 51 55 64
71 29 32 75 36 98 10 8 -10 18 -38 22 -63 4 -25 14 -69 24 -98 l16 -54 12 34
c7 18 13 27 13 21 2 -25 22 -12 37 23 11 27 12 39 4 49 -17 20 -10 95 12 133
l18 33 -22 -2 c-13 -1 -31 1 -40 6 -10 4 -37 5 -60 3 -29 -3 -55 1 -79 13 -39
19 -102 23 -96 5z"/>
<path d="M2268 3753 c7 -3 16 -2 19 1 4 3 -2 6 -13 5 -11 0 -14 -3 -6 -6z"/>
<path d="M2092 3273 c13 -16 101 -43 138 -43 15 0 39 -9 53 -20 31 -25 37 -25
37 -2 0 14 -18 25 -67 42 -82 29 -178 43 -161 23z"/>
<path d="M2585 3233 c-11 -2 -30 -6 -42 -9 -35 -7 -27 -24 10 -24 30 1 67 19
67 34 0 6 -3 6 -35 -1z"/>
<path d="M1885 2987 c-26 -14 -16 -35 19 -41 19 -4 49 -20 67 -37 29 -25 39
-29 69 -24 49 9 102 6 117 -6 6 -6 17 -8 23 -4 6 4 18 1 27 -7 12 -10 50 -12
147 -11 246 4 311 12 303 36 -5 15 -212 52 -235 42 -30 -14 -41 -13 -53 1 -10
13 -14 12 -30 -2 -17 -15 -20 -15 -46 3 -15 11 -64 27 -108 36 -88 19 -277 27
-300 14z"/>
<path d="M2994 1655 c-10 -8 -14 -15 -8 -15 5 0 19 7 30 15 10 8 14 15 8 15
-5 0 -19 -7 -30 -15z"/>
<path d="M2906 1601 c-3 -5 0 -11 8 -14 8 -3 17 1 20 9 6 15 -19 20 -28 5z"/>
<path d="M3010 1460 c-8 -5 -11 -12 -7 -16 4 -4 15 0 24 9 18 18 8 23 -17 7z"/>
<path d="M2305 1210 c-3 -5 -1 -10 4 -10 6 0 11 5 11 10 0 6 -2 10 -4 10 -3 0
-8 -4 -11 -10z"/>
<path d="M2268 1203 c7 -3 16 -2 19 1 4 3 -2 6 -13 5 -11 0 -14 -3 -6 -6z"/>
<path d="M1978 1033 c7 -3 16 -2 19 1 4 3 -2 6 -13 5 -11 0 -14 -3 -6 -6z"/>
<path d="M3851 774 c0 -11 3 -14 6 -6 3 7 2 16 -1 19 -3 4 -6 -2 -5 -13z"/>
<path d="M2994 154 l-29 -12 42 -1 c23 -1 44 3 47 8 10 15 -30 19 -60 5z"/>
<path d="M2460 190 c-45 -7 -28 -18 29 -18 24 -1 42 0 40 1 -2 2 -11 7 -19 13
-8 5 -31 8 -50 4z"/>
<path d="M2760 193 c-14 -3 -29 -9 -34 -14 -17 -15 38 -10 60 6 20 15 17 16
-26 8z"/>
<path d="M2540 180 c0 -5 7 -10 16 -10 8 0 12 5 9 10 -3 6 -10 10 -16 10 -5 0
-9 -4 -9 -10z"/>
<path d="M2665 180 c-4 -6 5 -10 19 -10 14 0 26 5 26 10 0 6 -9 10 -19 10 -11
0 -23 -4 -26 -10z"/>
<path d="M2590 169 c0 -5 5 -7 10 -4 6 3 10 8 10 11 0 2 -4 4 -10 4 -5 0 -10
-5 -10 -11z"/>
<path d="M2473 133 c-7 -2 -13 -9 -13 -15 0 -6 6 -6 15 2 10 9 15 9 15 1 0 -6
11 -11 25 -11 14 0 25 5 25 11 0 6 -9 8 -20 4 -11 -4 -20 -2 -20 4 0 12 -7 13
-27 4z"/>
<path d="M2650 118 c0 -22 1 -22 34 -4 l27 14 -31 4 c-24 4 -30 1 -30 -14z"/>
<path d="M2735 130 c-3 -6 5 -10 19 -10 32 0 42 15 11 18 -13 1 -27 -3 -30 -8z"/>
<path d="M2555 120 c-3 -5 -1 -10 4 -10 6 0 11 5 11 10 0 6 -2 10 -4 10 -3 0
-8 -4 -11 -10z"/>
<path d="M2605 119 c-4 -6 -5 -12 -2 -15 7 -7 37 7 37 17 0 13 -27 11 -35 -2z"/>
<path d="M738 4033 c7 -3 16 -2 19 1 4 3 -2 6 -13 5 -11 0 -14 -3 -6 -6z"/>
<path d="M10 3590 c0 -5 5 -10 10 -10 6 0 10 5 10 10 0 6 -4 10 -10 10 -5 0
-10 -4 -10 -10z"/>
<path d="M237 3553 c-13 -12 -7 -43 8 -43 9 0 15 9 15 25 0 24 -10 32 -23 18z"/>
<path d="M292 3505 c0 -16 2 -22 5 -12 2 9 2 23 0 30 -3 6 -5 -1 -5 -18z"/>
<path d="M72 3480 c0 -14 2 -19 5 -12 2 6 2 18 0 25 -3 6 -5 1 -5 -13z"/>
<path d="M157 3383 c-4 -3 -7 -11 -7 -17 0 -6 5 -5 12 2 6 6 9 14 7 17 -3 3
-9 2 -12 -2z"/>
<path d="M6 3022 c-4 -12 -3 -29 2 -38 9 -15 10 -15 16 4 4 12 3 29 -2 38 -9
15 -10 15 -16 -4z"/>
<path d="M670 2910 c-9 -6 -10 -10 -3 -10 6 0 15 5 18 10 8 12 4 12 -15 0z"/>
<path d="M6 2854 c-4 -14 -5 -28 -3 -31 3 -2 8 8 11 23 4 14 5 28 3 31 -3 2
-8 -8 -11 -23z"/>
<path d="M90 2780 c0 -5 -6 -10 -13 -10 -14 0 -47 -31 -47 -43 0 -4 6 -7 14
-7 8 0 17 -6 19 -12 3 -7 8 1 12 19 4 17 13 34 21 37 16 6 19 26 4 26 -5 0
-10 -4 -10 -10z"/>
<path d="M0 2683 c0 -22 2 -25 10 -13 13 20 13 40 0 40 -5 0 -10 -12 -10 -27z"/>
<path d="M51 2643 c-17 -33 -20 -35 -21 -14 0 20 -2 21 -15 11 -16 -13 -21
-85 -6 -75 5 3 12 1 16 -5 10 -17 28 -11 21 6 -4 9 3 37 15 61 26 55 18 69
-10 16z"/>
<path d="M7 2213 c-4 -3 -7 -11 -7 -17 0 -6 5 -5 12 2 6 6 9 14 7 17 -3 3 -9
2 -12 -2z"/>
<path d="M4080 545 c0 -9 -6 -18 -14 -21 -24 -9 -45 -50 -39 -73 6 -24 31 -28
39 -6 4 9 13 13 24 10 14 -5 17 3 19 50 1 43 -2 55 -14 55 -8 0 -15 -7 -15
-15z"/>
<path d="M4263 204 c-7 -16 -7 -26 0 -33 8 -8 7 -11 -2 -11 -8 0 -11 -7 -8
-20 8 -32 -19 -24 -33 10 -9 23 -17 29 -31 25 -12 -4 -22 1 -29 16 -7 12 -15
17 -19 11 -3 -5 -17 -12 -31 -15 -20 -3 -19 -5 9 -6 48 -2 82 -51 45 -65 -25
-10 -50 2 -51 24 -2 25 14 27 20 3 3 -13 5 -12 6 5 1 20 -3 23 -26 20 -14 -2
-28 -10 -30 -18 -4 -12 -3 -13 5 -1 7 10 12 3 17 -27 9 -55 28 -70 52 -43 9
12 23 21 30 21 7 0 13 8 13 18 1 14 3 13 13 -5 12 -21 15 -23 38 -23 7 0 9
-13 5 -38 l-6 -37 14 30 c14 29 14 30 15 5 1 -14 5 -30 9 -35 8 -11 72 -14 72
-4 0 4 15 10 33 13 37 7 65 42 48 59 -8 8 -11 8 -11 -1 0 -6 -11 -11 -25 -10
-22 2 -23 4 -10 18 20 22 19 30 -5 30 -23 0 -27 15 -5 24 8 3 15 10 15 16 0 7
-20 11 -56 9 -39 -2 -58 1 -64 11 -12 20 7 30 42 23 21 -4 28 -2 28 10 0 27
-74 19 -87 -9z m87 -84 c0 -5 -6 -10 -14 -10 -8 0 -18 5 -21 10 -3 6 3 10 14
10 12 0 21 -4 21 -10z"/>
<path d="M4020 194 c0 -8 5 -12 10 -9 6 4 8 11 5 16 -9 14 -15 11 -15 -7z"/>
<path d="M4061 186 c-16 -19 -11 -29 8 -17 7 5 12 14 9 21 -3 9 -8 7 -17 -4z"/>
<path d="M4156 23 c-11 -11 -6 -23 9 -23 8 0 15 4 15 9 0 13 -16 22 -24 14z"/>
</g>
</svg>
