<?xml version="1.0" standalone="no"?>
<!DOCTYPE svg PUBLIC "-//W3C//DTD SVG 20010904//EN"
 "http://www.w3.org/TR/2001/REC-SVG-20010904/DTD/svg10.dtd">
<svg version="1.0" xmlns="http://www.w3.org/2000/svg"
 width="862.000000pt" height="360.000000pt" viewBox="0 0 862.000000 360.000000"
 preserveAspectRatio="xMidYMid meet">

<g transform="translate(0.000000,360.000000) scale(0.100000,-0.100000)"
fill="#000000" stroke="none">
<path d="M3690 3592 c0 -7 -5 -11 -11 -9 -6 1 -14 -4 -17 -12 -3 -10 0 -12 13
-7 10 3 23 2 30 -4 10 -8 13 -7 11 5 -3 20 -26 44 -26 27z"/>
<path d="M4795 3577 c16 -12 36 -30 44 -39 9 -10 19 -18 24 -18 5 0 1 7 -7 16
-18 17 -12 39 7 27 7 -3 4 3 -7 15 -16 19 -36 22 -36 6 0 -3 4 -3 9 1 5 3 12
1 15 -4 12 -19 -12 -20 -34 -1 -13 11 -28 20 -34 20 -6 0 2 -11 19 -23z"/>
<path d="M4769 3567 c14 -15 29 -27 33 -27 10 0 -5 16 -37 40 -15 10 -14 7 4
-13z"/>
<path d="M3631 3553 c-5 -10 -13 -17 -18 -15 -4 2 -9 -1 -11 -7 -5 -14 15 -14
23 -1 3 6 11 10 16 10 6 0 7 -5 3 -12 -4 -7 -3 -8 5 -4 8 6 9 12 2 20 -6 7 -8
16 -4 19 3 4 4 7 0 7 -3 0 -10 -8 -16 -17z"/>
<path d="M4730 3563 c0 -5 12 -16 25 -26 16 -11 23 -13 20 -5 -6 15 -45 42
-45 31z"/>
<path d="M3684 3538 c-4 -7 -4 -10 1 -6 4 4 15 2 24 -5 14 -11 14 -10 2 6 -16
20 -18 21 -27 5z"/>
<path d="M4060 3537 c0 -9 4 -18 9 -21 5 -4 8 1 7 9 -3 21 -16 31 -16 12z"/>
<path d="M4893 3531 c-11 -17 -9 -24 15 -49 15 -17 32 -36 38 -43 19 -26 129
-194 129 -199 0 -3 4 -10 8 -17 4 -6 4 -14 -1 -17 -5 -3 -17 14 -27 37 -9 23
-23 47 -29 52 -17 16 -56 73 -56 84 0 5 -7 12 -16 15 -8 3 5 -24 31 -60 25
-36 57 -88 70 -115 23 -44 55 -66 55 -38 0 6 -7 9 -15 5 -8 -3 -15 -1 -15 3 0
5 6 11 13 14 9 4 9 7 0 18 -10 10 -10 16 0 28 6 8 7 12 1 8 -6 -3 -38 35 -75
91 -35 53 -78 113 -96 132 -33 36 -30 66 4 39 16 -12 15 -11 -1 9 -11 12 -20
22 -20 22 -1 0 -7 -9 -13 -19z"/>
<path d="M4007 3509 c4 -13 8 -18 11 -10 2 7 -1 18 -6 23 -8 8 -9 4 -5 -13z"/>
<path d="M3566 3504 c-9 -22 3 -32 14 -14 12 19 12 30 1 30 -5 0 -12 -7 -15
-16z"/>
<path d="M4030 3516 c0 -2 7 -7 16 -10 8 -3 12 -2 9 4 -6 10 -25 14 -25 6z"/>
<path d="M4830 3510 c0 -5 10 -15 23 -21 22 -12 22 -12 3 10 -21 23 -26 26
-26 11z"/>
<path d="M3625 3499 c-4 -6 -4 -13 -1 -16 3 -4 6 -1 6 7 0 10 4 10 18 -1 15
-13 16 -12 3 4 -16 20 -18 20 -26 6z"/>
<path d="M4825 3476 c22 -20 44 -36 48 -36 5 0 -4 10 -20 23 -52 42 -68 50
-28 13z"/>
<path d="M3590 3480 c-6 -11 -16 -17 -25 -14 -10 4 -15 0 -15 -12 0 -14 2 -16
9 -6 4 8 12 12 16 10 4 -1 14 7 23 20 8 12 12 22 9 22 -4 0 -11 -9 -17 -20z"/>
<path d="M4026 3468 c3 -4 11 -5 19 -1 21 7 19 12 -4 10 -11 0 -18 -5 -15 -9z"/>
<path d="M4900 3465 c0 -12 24 -55 31 -55 4 0 1 14 -7 30 -14 27 -24 38 -24
25z"/>
<path d="M4960 3466 c0 -2 8 -10 18 -17 15 -13 16 -12 3 4 -13 16 -21 21 -21
13z"/>
<path d="M3490 3440 c0 -5 5 -10 11 -10 5 0 7 5 4 10 -3 6 -8 10 -11 10 -2 0
-4 -4 -4 -10z"/>
<path d="M3548 3403 c5 -21 7 -23 10 -9 2 10 0 22 -6 28 -6 6 -7 0 -4 -19z"/>
<path d="M3491 3404 c0 -11 3 -14 6 -6 3 7 2 16 -1 19 -3 4 -6 -2 -5 -13z"/>
<path d="M4885 3410 c3 -5 8 -10 11 -10 2 0 4 5 4 10 0 6 -5 10 -11 10 -5 0
-7 -4 -4 -10z"/>
<path d="M3485 3350 c-1 -16 1 -27 4 -25 2 3 11 -1 19 -8 13 -10 14 -9 7 3 -5
8 -10 21 -12 29 -4 28 -18 29 -18 1z"/>
<path d="M5020 3376 c0 -2 8 -10 18 -17 15 -13 16 -12 3 4 -13 16 -21 21 -21
13z"/>
<path d="M4936 3353 c-6 -14 -5 -15 5 -6 7 7 10 15 7 18 -3 3 -9 -2 -12 -12z"/>
<path d="M4823 3342 c5 -20 2 -22 -16 -17 -21 6 -21 6 -2 -6 11 -7 23 -17 27
-23 4 -5 6 4 4 22 -1 17 -6 35 -11 39 -4 4 -5 -2 -2 -15z"/>
<path d="M4350 3337 c0 -9 4 -18 9 -21 5 -4 8 1 7 9 -3 21 -16 31 -16 12z"/>
<path d="M4767 3319 c4 -13 8 -18 11 -10 2 7 -1 18 -6 23 -8 8 -9 4 -5 -13z"/>
<path d="M4297 3309 c4 -13 8 -18 11 -10 2 7 -1 18 -6 23 -8 8 -9 4 -5 -13z"/>
<path d="M4320 3316 c0 -2 7 -7 16 -10 8 -3 12 -2 9 4 -6 10 -25 14 -25 6z"/>
<path d="M4970 3311 c0 -6 4 -13 10 -16 6 -3 7 1 4 9 -7 18 -14 21 -14 7z"/>
<path d="M3510 3296 c0 -2 7 -9 15 -16 13 -11 14 -10 9 4 -5 14 -24 23 -24 12z"/>
<path d="M4330 3279 c0 -5 -5 -7 -12 -3 -7 4 -8 3 -4 -4 4 -6 13 -9 21 -6 8 4
12 10 9 15 -7 12 -14 11 -14 -2z"/>
<path d="M4786 3278 c3 -4 11 -5 19 -1 21 7 19 12 -4 10 -11 0 -18 -5 -15 -9z"/>
<path d="M3550 3263 c0 -13 29 -38 35 -31 3 3 -4 13 -15 23 -11 10 -20 13 -20
8z"/>
<path d="M3520 3232 c0 -12 19 -26 26 -19 2 2 -2 10 -11 17 -9 8 -15 8 -15 2z"/>
<path d="M5897 3225 c3 -8 9 -12 14 -9 12 7 11 11 -5 17 -10 4 -13 1 -9 -8z"/>
<path d="M5935 3230 c-2 -3 5 -7 16 -7 10 -1 19 2 19 6 0 9 -29 10 -35 1z"/>
<path d="M5985 3230 c-3 -5 -1 -10 4 -10 6 0 11 5 11 10 0 6 -2 10 -4 10 -3 0
-8 -4 -11 -10z"/>
<path d="M6015 3230 c-3 -5 -1 -10 4 -10 6 0 11 5 11 10 0 6 -2 10 -4 10 -3 0
-8 -4 -11 -10z"/>
<path d="M6045 3230 c-3 -5 -1 -10 4 -10 6 0 11 5 11 10 0 6 -2 10 -4 10 -3 0
-8 -4 -11 -10z"/>
<path d="M6075 3230 c-3 -5 -1 -10 4 -10 6 0 11 5 11 10 0 6 -2 10 -4 10 -3 0
-8 -4 -11 -10z"/>
<path d="M6196 3228 c3 -5 10 -6 15 -3 13 9 11 12 -6 12 -8 0 -12 -4 -9 -9z"/>
<path d="M6255 3229 c-3 -4 2 -6 10 -5 21 3 28 13 10 13 -9 0 -18 -4 -20 -8z"/>
<path d="M6325 3230 c-2 -3 5 -7 16 -7 10 -1 19 2 19 6 0 9 -29 10 -35 1z"/>
<path d="M6407 3229 c-9 -5 -23 -7 -30 -3 -6 4 -2 -4 11 -18 12 -13 28 -25 35
-25 6 0 21 -4 32 -8 20 -7 20 -7 0 9 -11 9 -25 14 -32 12 -21 -8 -26 14 -7 29
22 17 17 19 -9 4z"/>
<path d="M3604 3214 c3 -18 43 -47 50 -36 3 5 -8 18 -23 30 -22 16 -29 18 -27
6z"/>
<path d="M6448 3223 c7 -3 16 -2 19 1 4 3 -2 6 -13 5 -11 0 -14 -3 -6 -6z"/>
<path d="M5041 3192 c6 -18 15 -35 20 -38 5 -3 4 7 -3 23 -17 41 -30 53 -17
15z"/>
<path d="M5800 3209 c0 -5 5 -7 10 -4 6 3 10 8 10 11 0 2 -4 4 -10 4 -5 0 -10
-5 -10 -11z"/>
<path d="M3560 3207 c0 -2 14 -16 31 -33 22 -20 28 -23 19 -8 -11 18 -50 50
-50 41z"/>
<path d="M5743 3197 c-18 -7 -38 -18 -45 -25 -9 -9 -3 -8 17 2 17 9 38 16 47
16 9 0 20 5 23 10 8 12 -1 12 -42 -3z"/>
<path d="M5940 3201 c0 -7 -5 -9 -12 -5 -7 5 -8 3 -3 -5 5 -9 10 -10 18 -2 6
6 8 14 4 18 -4 3 -7 1 -7 -6z"/>
<path d="M6120 3206 c0 -2 8 -10 18 -17 15 -13 16 -12 3 4 -13 16 -21 21 -21
13z"/>
<path d="M6165 3190 c10 -11 20 -20 23 -20 3 0 -3 9 -13 20 -10 11 -20 20 -23
20 -3 0 3 -9 13 -20z"/>
<path d="M6187 3199 c7 -7 15 -10 18 -7 3 3 -2 9 -12 12 -14 6 -15 5 -6 -5z"/>
<path d="M6295 3200 c8 -12 44 -19 51 -9 3 5 -1 9 -8 10 -7 0 -21 2 -31 4 -9
2 -15 0 -12 -5z"/>
<path d="M6368 3194 c6 -12 8 -25 4 -30 -4 -5 0 -3 8 4 12 10 12 15 -4 30 -18
16 -18 16 -8 -4z"/>
<path d="M5856 3188 c3 -5 11 -7 17 -5 7 2 21 0 32 -6 15 -7 17 -7 9 3 -13 14
-66 21 -58 8z"/>
<path d="M6479 3187 c7 -9 20 -17 29 -17 14 0 8 15 -6 15 -4 0 -14 4 -22 10
-13 8 -13 7 -1 -8z"/>
<path d="M6544 3179 c-6 -10 -7 -10 24 -13 12 -2 22 1 22 5 0 11 -39 18 -46 8z"/>
<path d="M3725 3171 c-3 -5 -2 -12 3 -15 5 -3 9 1 9 9 0 17 -3 19 -12 6z"/>
<path d="M6205 3169 c-4 -6 -5 -12 -2 -15 2 -3 7 2 10 11 7 17 1 20 -8 4z"/>
<path d="M6685 3171 c-3 -5 -2 -12 3 -15 5 -3 9 1 9 9 0 17 -3 19 -12 6z"/>
<path d="M3675 3159 c11 -7 25 -20 32 -28 7 -9 13 -11 13 -6 0 6 5 3 10 -5 5
-8 14 -16 20 -16 5 -1 15 -2 21 -3 5 0 8 -5 5 -9 -2 -4 4 -9 16 -9 25 -2 -76
71 -112 81 -23 6 -23 6 -5 -5z"/>
<path d="M5031 3154 c0 -11 3 -14 6 -6 3 7 2 16 -1 19 -3 4 -6 -2 -5 -13z"/>
<path d="M6611 3161 c-8 -5 -9 -11 -3 -15 5 -3 12 1 16 9 6 17 6 18 -13 6z"/>
<path d="M5640 3150 c-8 -5 -12 -12 -9 -15 4 -3 12 1 19 10 14 17 11 19 -10 5z"/>
<path d="M6485 3150 c-3 -5 -2 -10 4 -10 5 0 13 5 16 10 3 6 2 10 -4 10 -5 0
-13 -4 -16 -10z"/>
<path d="M3676 3114 c63 -48 154 -106 154 -98 0 4 8 0 17 -7 12 -10 15 -10 9
-1 -4 7 -22 19 -40 26 -19 8 -65 37 -104 65 -79 58 -108 70 -36 15z"/>
<path d="M3750 3146 c0 -2 8 -10 18 -17 15 -13 16 -12 3 4 -13 16 -21 21 -21
13z"/>
<path d="M6635 3140 c-3 -5 1 -10 10 -10 9 0 13 5 10 10 -3 6 -8 10 -10 10 -2
0 -7 -4 -10 -10z"/>
<path d="M6820 3141 c0 -5 7 -12 16 -15 14 -5 15 -4 4 9 -14 17 -20 19 -20 6z"/>
<path d="M5101 3133 c0 -4 4 -17 9 -28 8 -19 9 -19 9 2 1 12 -3 25 -9 28 -5 3
-10 3 -9 -2z"/>
<path d="M5596 3125 c-3 -8 -1 -15 4 -15 13 0 22 18 11 24 -5 3 -11 -1 -15 -9z"/>
<path d="M6686 3132 c-2 -4 9 -8 26 -9 21 0 26 2 17 8 -17 11 -36 11 -43 1z"/>
<path d="M5636 3108 c3 -5 10 -6 15 -3 13 9 11 12 -6 12 -8 0 -12 -4 -9 -9z"/>
<path d="M5536 3089 c-15 -11 -34 -22 -43 -23 -9 -2 -19 -9 -21 -17 -3 -11 -2
-11 6 -1 7 10 14 8 35 -8 15 -12 27 -17 27 -12 0 6 -7 13 -16 16 -15 6 -15 8
1 26 10 11 24 20 31 20 7 0 16 5 19 10 11 17 -11 11 -39 -11z"/>
<path d="M6650 3100 c0 -5 5 -10 11 -10 5 0 7 5 4 10 -3 6 -8 10 -11 10 -2 0
-4 -4 -4 -10z"/>
<path d="M6804 3098 c-4 -6 -3 -8 4 -4 6 3 24 -10 41 -31 20 -25 28 -30 25
-16 -8 28 -61 67 -70 51z"/>
<path d="M5041 3083 c0 -11 3 -13 6 -5 2 6 9 10 14 6 5 -3 9 0 9 5 0 6 -7 11
-15 11 -8 0 -15 -8 -14 -17z"/>
<path d="M5610 3081 c0 -6 4 -13 10 -16 6 -3 7 1 4 9 -7 18 -14 21 -14 7z"/>
<path d="M6910 3086 c0 -2 7 -7 16 -10 8 -3 12 -2 9 4 -6 10 -25 14 -25 6z"/>
<path d="M3865 3047 c16 -12 33 -23 37 -23 5 -1 13 -2 19 -3 5 0 7 -5 4 -11
-3 -5 6 -12 20 -16 14 -3 25 -10 25 -15 0 -6 6 -4 14 3 12 11 12 14 0 21 -8 5
-20 7 -27 4 -6 -2 -20 7 -31 20 -10 13 -24 22 -31 19 -8 -3 -19 2 -25 10 -7 8
-18 14 -24 14 -6 0 2 -11 19 -23z"/>
<path d="M6880 3058 c0 -6 3 -8 7 -5 3 4 13 1 22 -6 14 -11 14 -10 2 6 -15 20
-31 22 -31 5z"/>
<path d="M5074 3030 c4 -19 9 -42 11 -50 2 -8 4 -17 5 -20 5 -26 -3 -467 -9
-478 -5 -9 -9 93 -9 237 0 138 -2 255 -6 258 -3 4 -6 -41 -6 -98 -2 -301 -3
-380 -7 -336 l-4 47 -47 1 c-138 3 -243 -2 -272 -15 -8 -3 -28 -7 -45 -9 -16
-2 -40 -9 -52 -15 -12 -7 -31 -12 -43 -12 -11 0 -23 -7 -26 -15 -7 -17 -46
-20 -75 -5 -14 8 -19 8 -17 -1 2 -7 -24 -27 -57 -46 -69 -39 -148 -113 -169
-158 -53 -110 -50 -89 -41 -385 7 -246 9 -271 17 -286 3 -5 8 -22 12 -37 4
-15 10 -26 15 -23 4 3 7 -8 6 -24 -1 -17 2 -30 7 -30 4 0 8 -9 8 -20 0 -11 12
-39 27 -63 14 -23 25 -43 22 -44 -8 -3 47 -56 90 -85 32 -23 45 -27 51 -18 6
9 9 9 13 -1 3 -8 6 -4 6 9 1 14 6 22 14 20 8 -3 14 -37 18 -99 l5 -94 3 90 c2
50 5 82 8 72 2 -9 9 -15 14 -12 5 4 9 -1 9 -10 0 -14 11 -16 83 -12 45 2 105
7 132 11 28 4 93 11 145 17 52 5 97 13 100 17 5 7 19 11 47 16 7 1 21 10 33
21 11 10 20 15 20 11 0 -11 79 52 118 94 18 19 42 52 52 72 11 20 24 40 30 43
6 4 8 10 5 14 -2 5 5 20 18 33 12 14 23 31 25 39 2 8 8 17 14 20 5 3 9 8 8 10
-1 2 4 18 10 34 6 17 11 32 10 35 -1 2 7 8 17 12 16 7 16 8 -2 5 -11 -2 -19
-9 -18 -15 2 -7 -4 -12 -13 -12 -11 0 -14 5 -9 18 14 33 11 47 -9 44 -18 -3
-19 -2 -4 20 11 17 27 24 56 26 31 2 40 7 35 18 -3 7 -1 14 5 14 5 0 9 18 8
41 -1 22 1 42 4 44 3 2 2 43 -3 92 -5 48 -9 103 -10 121 0 17 -3 32 -6 32 -4
0 -7 16 -9 36 -1 19 -8 45 -14 57 -7 12 -13 24 -14 27 -1 3 -5 15 -9 28 -4 12
-11 22 -16 22 -5 0 -9 5 -9 10 0 18 -62 80 -73 73 -6 -3 -7 -2 -4 4 6 10 -44
53 -63 53 -5 0 -10 5 -10 10 0 6 -8 10 -18 10 -10 0 -23 5 -28 10 -7 7 -18 -4
-34 -35 -13 -25 -27 -48 -32 -51 -9 -6 -9 -10 -9 271 0 120 -3 224 -7 230 -4
5 -8 19 -10 30 -1 11 -4 28 -5 37 -2 10 -7 21 -11 25 -4 5 -5 -8 -2 -27z
m-666 -1585 c-3 -3 -9 2 -12 12 -6 14 -5 15 5 6 7 -7 10 -15 7 -18z"/>
<path d="M3947 3029 c7 -7 15 -10 18 -7 3 3 -2 9 -12 12 -14 6 -15 5 -6 -5z"/>
<path d="M5051 3024 c0 -11 3 -14 6 -6 3 7 2 16 -1 19 -3 4 -6 -2 -5 -13z"/>
<path d="M5445 3030 c-3 -6 1 -13 9 -16 9 -3 16 -10 16 -15 0 -4 -7 -6 -15 -3
-8 4 -15 1 -15 -7 0 -7 3 -9 7 -6 3 4 13 1 22 -5 9 -7 13 -8 9 -4 -4 5 -3 15
3 23 9 10 8 13 0 13 -7 0 -9 4 -6 10 4 6 -1 7 -11 3 -12 -4 -15 -3 -10 5 4 7
5 12 2 12 -3 0 -8 -5 -11 -10z"/>
<path d="M6930 3030 c0 -5 7 -10 15 -10 8 0 15 -5 15 -12 0 -6 3 -8 7 -5 3 4
11 3 18 -1 6 -4 -1 3 -15 15 -27 25 -40 29 -40 13z"/>
<path d="M6990 3036 c0 -2 7 -7 16 -10 8 -3 12 -2 9 4 -6 10 -25 14 -25 6z"/>
<path d="M7030 3010 c0 -5 5 -10 11 -10 5 0 7 5 4 10 -3 6 -8 10 -11 10 -2 0
-4 -4 -4 -10z"/>
<path d="M5389 2997 c12 -15 11 -20 -4 -38 -11 -11 -25 -17 -32 -15 -10 4 -10
1 0 -14 10 -17 13 -18 17 -4 3 8 9 15 13 15 16 -1 37 12 37 24 0 6 -10 20 -22
31 -19 16 -20 16 -9 1z m21 -31 c0 -2 -8 -10 -17 -17 -16 -13 -17 -12 -4 4 13
16 21 21 21 13z"/>
<path d="M3876 2988 c3 -5 10 -6 15 -3 13 9 11 12 -6 12 -8 0 -12 -4 -9 -9z"/>
<path d="M4010 2994 c0 -8 28 -35 35 -34 16 4 64 -13 60 -20 -7 -11 43 -23 57
-14 7 5 9 2 5 -9 -3 -9 -1 -19 5 -23 7 -5 8 -2 3 6 -5 9 -2 10 14 5 22 -7 22
-7 -1 17 -13 13 -24 20 -26 16 -5 -11 -32 -10 -32 1 0 5 -15 14 -32 20 -18 7
-45 18 -60 26 -16 8 -28 12 -28 9z"/>
<path d="M5133 2945 c0 -33 2 -45 4 -27 2 18 2 45 0 60 -2 15 -4 0 -4 -33z"/>
<path d="M7010 2981 c0 -5 6 -11 13 -14 6 -2 38 -26 70 -51 31 -26 57 -44 57
-40 0 5 8 -3 18 -16 9 -12 29 -35 45 -49 81 -76 97 -93 97 -103 0 -6 -10 -3
-22 8 l-21 19 18 -29 c11 -16 21 -23 23 -17 5 15 32 -5 32 -24 0 -7 7 -19 17
-26 15 -13 15 -12 0 16 -30 59 -85 127 -121 151 -36 25 -65 64 -47 64 5 0 13
-4 16 -10 3 -5 16 -15 28 -20 14 -7 11 -2 -8 12 -16 13 -34 23 -40 24 -22 2
-45 17 -39 25 3 5 2 8 -3 7 -13 -4 -66 28 -92 56 -25 26 -41 33 -41 17z"/>
<path d="M7073 2979 c9 -6 15 -14 13 -18 -3 -4 1 -8 9 -8 13 0 12 4 -2 19 -9
10 -21 18 -27 18 -6 0 -3 -5 7 -11z"/>
<path d="M3910 2975 c0 -2 15 -12 33 -20 l32 -16 -24 21 c-22 19 -41 26 -41
15z"/>
<path d="M4853 2932 c5 -20 2 -22 -16 -17 -21 6 -21 6 -2 -6 11 -7 23 -17 27
-23 4 -5 6 4 4 22 -1 17 -6 35 -11 39 -4 4 -5 -2 -2 -15z"/>
<path d="M4010 2929 c0 -5 5 -7 10 -4 6 3 10 8 10 11 0 2 -4 4 -10 4 -5 0 -10
-5 -10 -11z"/>
<path d="M7120 2936 c0 -2 7 -7 16 -10 8 -3 12 -2 9 4 -6 10 -25 14 -25 6z"/>
<path d="M4593 2912 c5 -20 2 -22 -16 -17 -21 6 -21 6 -2 -6 11 -7 23 -17 27
-23 4 -5 6 4 4 22 -1 17 -6 35 -11 39 -4 4 -5 -2 -2 -15z"/>
<path d="M4797 2909 c4 -13 8 -18 11 -10 2 7 -1 18 -6 23 -8 8 -9 4 -5 -13z"/>
<path d="M5399 2913 c-13 -16 -12 -17 4 -4 9 7 17 15 17 17 0 8 -8 3 -21 -13z"/>
<path d="M3082 2905 c-18 -8 -35 -14 -38 -14 -3 0 -8 -2 -11 -5 -3 -2 9 -4 26
-4 17 1 38 9 47 20 20 21 19 22 -24 3z"/>
<path d="M3210 2910 c0 -7 66 -7 74 0 2 3 -13 6 -35 6 -21 1 -39 -2 -39 -6z"/>
<path d="M3328 2913 c7 -3 16 -2 19 1 4 3 -2 6 -13 5 -11 0 -14 -3 -6 -6z"/>
<path d="M3370 2909 c0 -5 5 -7 10 -4 6 3 10 8 10 11 0 2 -4 4 -10 4 -5 0 -10
-5 -10 -11z"/>
<path d="M3450 2909 c0 -5 5 -7 10 -4 6 3 10 8 10 11 0 2 -4 4 -10 4 -5 0 -10
-5 -10 -11z"/>
<path d="M3486 2909 c4 -8 30 -6 38 2 3 3 -5 5 -19 5 -13 0 -22 -3 -19 -7z"/>
<path d="M4060 2911 c0 -4 11 -13 25 -19 14 -6 25 -8 25 -4 0 4 -11 12 -25 19
-14 6 -25 8 -25 4z"/>
<path d="M3620 2900 c0 -4 7 -7 15 -6 23 3 26 12 5 13 -11 1 -20 -2 -20 -7z"/>
<path d="M3730 2899 c0 -5 5 -7 10 -4 6 3 10 8 10 11 0 2 -4 4 -10 4 -5 0 -10
-5 -10 -11z"/>
<path d="M3787 2899 c7 -7 15 -10 18 -7 3 3 -2 9 -12 12 -14 6 -15 5 -6 -5z"/>
<path d="M3825 2899 c-4 -6 -5 -12 -2 -15 2 -3 7 2 10 11 7 17 1 20 -8 4z"/>
<path d="M3915 2900 c-4 -6 -11 -7 -17 -4 -7 4 -8 2 -4 -5 6 -9 11 -9 22 0 14
11 18 19 10 19 -3 0 -8 -5 -11 -10z"/>
<path d="M4537 2889 c4 -13 8 -18 11 -10 2 7 -1 18 -6 23 -8 8 -9 4 -5 -13z"/>
<path d="M5325 2901 c-6 -11 9 -23 19 -14 9 9 7 23 -3 23 -6 0 -12 -4 -16 -9z"/>
<path d="M7070 2900 c0 -5 10 -15 23 -21 22 -12 22 -12 3 10 -21 23 -26 26
-26 11z"/>
<path d="M7160 2906 c0 -2 7 -7 16 -10 8 -3 12 -2 9 4 -6 10 -25 14 -25 6z"/>
<path d="M2983 2885 c0 -8 4 -12 9 -9 5 3 6 10 3 15 -9 13 -12 11 -12 -6z"/>
<path d="M4235 2886 c11 -7 30 -16 43 -20 12 -4 20 -11 17 -16 -7 -11 22 -7
32 5 4 4 3 5 -3 2 -7 -4 -14 0 -18 8 -3 8 -16 15 -30 15 -14 0 -28 5 -31 10
-3 6 -11 10 -18 10 -6 0 -3 -6 8 -14z"/>
<path d="M6420 2887 c0 -9 4 -18 9 -21 5 -4 8 1 7 9 -3 21 -16 31 -16 12z"/>
<path d="M7045 2880 c10 -11 20 -20 23 -20 3 0 -3 9 -13 20 -10 11 -20 20 -23
20 -3 0 3 -9 13 -20z"/>
<path d="M3125 2880 c3 -4 16 -7 30 -7 32 0 26 8 -9 11 -14 2 -23 0 -21 -4z"/>
<path d="M3197 2879 c7 -7 15 -10 18 -7 3 3 -2 9 -12 12 -14 6 -15 5 -6 -5z"/>
<path d="M3297 2879 c7 -7 15 -10 18 -7 3 3 -2 9 -12 12 -14 6 -15 5 -6 -5z"/>
<path d="M3341 2880 c-9 -5 -10 -10 -2 -14 6 -4 11 -3 11 3 0 6 7 8 15 5 8 -4
15 -4 15 -1 0 10 -27 15 -39 7z"/>
<path d="M3397 2879 c7 -7 15 -10 18 -7 3 3 -2 9 -12 12 -14 6 -15 5 -6 -5z"/>
<path d="M3437 2879 c7 -7 15 -10 18 -7 3 3 -2 9 -12 12 -14 6 -15 5 -6 -5z"/>
<path d="M3589 2876 c14 -16 51 -28 51 -16 0 4 -14 13 -31 19 -26 9 -29 9 -20
-3z"/>
<path d="M3960 2883 c8 -3 20 -10 27 -15 7 -6 14 -5 19 3 4 7 3 9 -4 5 -6 -3
-13 -2 -17 4 -3 5 -14 10 -23 9 -14 0 -14 -2 -2 -6z"/>
<path d="M4125 2880 c3 -5 8 -10 11 -10 2 0 4 5 4 10 0 6 -5 10 -11 10 -5 0
-7 -4 -4 -10z"/>
<path d="M4830 2879 c0 -5 -5 -7 -12 -3 -7 4 -8 3 -4 -4 4 -6 13 -9 21 -6 8 4
12 10 9 15 -7 12 -14 11 -14 -2z"/>
<path d="M2926 2872 c-2 -4 4 -8 14 -9 11 -1 22 2 25 8 4 5 -3 9 -14 9 -11 0
-22 -4 -25 -8z"/>
<path d="M3710 2876 c0 -3 9 -10 20 -16 11 -6 20 -8 20 -6 0 3 -9 10 -20 16
-11 6 -20 8 -20 6z"/>
<path d="M4150 2871 c0 -4 11 -13 25 -19 14 -6 25 -8 25 -4 0 4 -11 12 -25 19
-14 6 -25 8 -25 4z"/>
<path d="M5350 2875 c0 -7 30 -13 34 -7 3 4 -4 9 -15 9 -10 1 -19 0 -19 -2z"/>
<path d="M6367 2859 c4 -13 8 -18 11 -10 2 7 -1 18 -6 23 -8 8 -9 4 -5 -13z"/>
<path d="M2824 2857 c-44 -25 -144 -90 -144 -94 0 -5 33 13 84 47 24 17 48 30
54 30 5 0 15 7 22 15 14 17 13 17 -16 2z"/>
<path d="M3785 2859 c-3 -3 10 -5 28 -4 17 2 39 -2 47 -8 13 -9 13 -9 2 3 -13
15 -70 22 -77 9z"/>
<path d="M3870 2866 c0 -2 8 -10 18 -17 15 -13 16 -12 3 4 -13 16 -21 21 -21
13z"/>
<path d="M4030 2860 c20 -13 33 -13 25 0 -3 6 -14 10 -23 10 -15 0 -15 -2 -2
-10z"/>
<path d="M4570 2859 c0 -5 -5 -7 -12 -3 -7 4 -8 3 -4 -4 4 -6 13 -9 21 -6 8 4
12 10 9 15 -7 12 -14 11 -14 -2z"/>
<path d="M5132 2850 c0 -14 2 -19 5 -12 2 6 2 18 0 25 -3 6 -5 1 -5 -13z"/>
<path d="M6410 2850 c13 -11 26 -18 28 -15 6 6 -28 34 -42 35 -5 0 1 -9 14
-20z"/>
<path d="M3011 2843 c7 -12 15 -20 18 -17 3 2 -3 12 -13 22 -17 16 -18 16 -5
-5z"/>
<path d="M3920 2851 c0 -9 14 -15 23 -9 1 1 13 -4 26 -11 19 -11 23 -11 19 1
-3 7 -13 13 -24 13 -10 1 -25 4 -32 8 -6 5 -12 4 -12 -2z"/>
<path d="M4120 2854 c0 -13 96 -65 104 -57 6 6 -42 31 -55 29 -4 -1 -16 8 -28
18 -12 11 -21 15 -21 10z"/>
<path d="M2977 2839 c7 -7 15 -10 18 -7 3 3 -2 9 -12 12 -14 6 -15 5 -6 -5z"/>
<path d="M3095 2840 c-16 -7 -17 -9 -3 -9 9 -1 20 4 23 9 7 11 7 11 -20 0z"/>
<path d="M3246 2838 c3 -5 10 -6 15 -3 13 9 11 12 -6 12 -8 0 -12 -4 -9 -9z"/>
<path d="M3486 2839 c4 -8 30 -6 38 2 3 3 -5 5 -19 5 -13 0 -22 -3 -19 -7z"/>
<path d="M4210 2839 c0 -5 5 -7 10 -4 6 3 10 8 10 11 0 2 -4 4 -10 4 -5 0 -10
-5 -10 -11z"/>
<path d="M4006 2832 c-3 -4 8 -13 25 -19 18 -7 29 -8 29 -2 0 6 5 7 12 3 7 -4
8 -3 4 5 -4 6 -11 9 -16 6 -5 -3 -18 -1 -29 5 -11 5 -22 6 -25 2z"/>
<path d="M4240 2830 c0 -5 5 -10 10 -10 6 0 10 5 10 10 0 6 -4 10 -10 10 -5 0
-10 -4 -10 -10z"/>
<path d="M5265 2831 c-3 -2 0 -10 6 -18 11 -12 2 -18 -23 -15 -3 1 -11 -5 -18
-13 -10 -12 -7 -13 15 -9 19 3 26 1 23 -8 -3 -7 -10 -13 -15 -13 -6 0 -14 -2
-17 -5 -3 -4 5 -6 18 -6 17 0 23 5 21 21 -2 30 5 37 23 23 12 -9 11 -6 -2 10
-19 22 -10 32 11 11 7 -7 12 -6 16 5 4 11 1 13 -10 9 -10 -4 -14 -2 -9 5 6 10
-29 13 -39 3z"/>
<path d="M4303 2814 c-17 -18 -6 -21 47 -13 25 3 36 7 25 7 -12 1 -26 7 -33
14 -9 9 -12 9 -12 -2 0 -10 -3 -11 -8 -4 -5 9 -10 8 -19 -2z"/>
<path d="M6386 2818 c3 -4 11 -5 19 -1 21 7 19 12 -4 10 -11 0 -18 -5 -15 -9z"/>
<path d="M7150 2790 c12 -16 24 -30 26 -30 3 0 -4 14 -16 30 -12 17 -24 30
-26 30 -3 0 4 -13 16 -30z"/>
<path d="M7170 2811 c0 -5 14 -19 30 -31 17 -12 30 -20 30 -17 0 2 -13 16 -30
30 -16 15 -30 23 -30 18z"/>
<path d="M7270 2810 c0 -6 7 -13 15 -16 8 -4 12 -11 8 -17 -4 -6 -1 -7 6 -3 9
6 8 13 -5 27 -20 22 -24 23 -24 9z"/>
<path d="M2825 2800 c3 -5 8 -10 11 -10 2 0 4 5 4 10 0 6 -5 10 -11 10 -5 0
-7 -4 -4 -10z"/>
<path d="M3966 2798 c3 -5 10 -6 15 -3 13 9 11 12 -6 12 -8 0 -12 -4 -9 -9z"/>
<path d="M4130 2791 c13 -11 27 -19 30 -19 3 1 13 -2 23 -7 39 -17 26 5 -14
24 -53 26 -72 27 -39 2z"/>
<path d="M4250 2790 c0 -5 10 -15 23 -21 22 -12 22 -12 3 10 -21 23 -26 26
-26 11z"/>
<path d="M5132 2775 c0 -16 2 -22 5 -12 2 9 2 23 0 30 -3 6 -5 -1 -5 -18z"/>
<path d="M5703 2782 c5 -20 2 -22 -16 -17 -21 6 -21 6 -2 -6 11 -7 23 -17 27
-23 4 -5 6 4 4 22 -1 17 -6 35 -11 39 -4 4 -5 -2 -2 -15z"/>
<path d="M4390 2783 c0 -13 29 -38 35 -31 3 3 -4 13 -15 23 -11 10 -20 13 -20
8z"/>
<path d="M5647 2759 c4 -13 8 -18 11 -10 2 7 -1 18 -6 23 -8 8 -9 4 -5 -13z"/>
<path d="M4250 2740 c19 -17 39 -30 46 -30 6 0 32 -18 57 -40 25 -22 48 -37
50 -33 3 5 -12 30 -34 57 -21 26 -39 45 -39 40 0 -4 7 -16 17 -26 22 -25 2
-23 -31 3 -14 11 -26 18 -26 15 0 -3 -12 6 -26 19 -15 14 -32 25 -38 25 -6 -1
5 -14 24 -30z m124 -66 c3 -8 2 -12 -4 -9 -6 3 -10 10 -10 16 0 14 7 11 14 -7z"/>
<path d="M4300 2760 c0 -5 5 -10 11 -10 5 0 7 5 4 10 -3 6 -8 10 -11 10 -2 0
-4 -4 -4 -10z"/>
<path d="M2635 2740 c3 -15 -1 -20 -13 -18 -9 2 -17 -1 -18 -7 -6 -37 -18 -56
-33 -51 -13 5 -13 4 2 -8 21 -16 22 -27 2 -20 -8 4 -15 1 -15 -7 0 -7 3 -9 7
-6 3 4 11 3 17 -3 8 -6 12 -1 14 17 1 14 7 32 13 39 6 8 8 14 3 14 -5 0 0 7
10 15 14 11 23 12 33 4 8 -7 13 -8 13 -1 0 5 -7 13 -16 16 -8 3 -13 10 -9 15
3 5 1 12 -4 16 -6 3 -8 -4 -6 -15z"/>
<path d="M2723 2725 c0 -8 4 -12 9 -9 5 3 6 10 3 15 -9 13 -12 11 -12 -6z"/>
<path d="M4387 2714 c11 -18 19 -22 22 -13 2 7 -1 15 -8 17 -6 2 -9 8 -5 13 3
5 -2 9 -11 9 -14 0 -14 -3 2 -26z"/>
<path d="M5212 2717 c-6 -7 -16 -25 -21 -40 -6 -16 -15 -26 -19 -23 -5 3 -9 0
-10 -7 -1 -7 -3 -25 -6 -42 -3 -16 -3 -22 0 -12 3 9 9 15 14 12 5 -3 12 0 16
6 4 8 3 9 -4 5 -7 -4 -12 -1 -12 7 0 8 7 17 15 21 8 3 15 13 15 21 0 9 4 14 9
11 5 -3 15 2 22 12 13 15 12 16 -3 3 -14 -10 -18 -11 -18 -1 0 7 8 19 18 26 9
7 12 14 6 14 -6 0 -16 -6 -22 -13z"/>
<path d="M5666 2718 c3 -4 11 -5 19 -1 21 7 19 12 -4 10 -11 0 -18 -5 -15 -9z"/>
<path d="M4430 2700 c6 -11 12 -20 14 -20 2 0 2 9 -1 20 -3 11 -9 20 -15 20
-5 0 -4 -9 2 -20z"/>
<path d="M7266 2683 c-6 -14 -5 -15 5 -6 7 7 10 15 7 18 -3 3 -9 -2 -12 -12z"/>
<path d="M3253 2672 c5 -20 2 -22 -16 -17 -21 6 -21 6 -2 -6 11 -7 23 -17 27
-23 4 -5 6 4 4 22 -1 17 -6 35 -11 39 -4 4 -5 -2 -2 -15z"/>
<path d="M4300 2681 c0 -5 7 -12 16 -15 14 -5 15 -4 4 9 -14 17 -20 19 -20 6z"/>
<path d="M6380 2667 c0 -9 4 -18 9 -21 5 -4 8 1 7 9 -3 21 -16 31 -16 12z"/>
<path d="M3197 2649 c4 -13 8 -18 11 -10 2 7 -1 18 -6 23 -8 8 -9 4 -5 -13z"/>
<path d="M4450 2658 c0 -4 4 -8 9 -8 6 0 12 4 15 8 3 5 -1 9 -9 9 -8 0 -15 -4
-15 -9z"/>
<path d="M7289 2651 c6 -10 7 -22 3 -27 -4 -5 -1 -4 6 2 13 11 6 44 -9 44 -6
0 -6 -8 0 -19z"/>
<path d="M7320 2651 c9 -18 9 -25 0 -31 -9 -5 -9 -9 -1 -14 6 -4 11 -1 11 6 1
8 6 6 15 -6 11 -14 15 -16 15 -5 -1 8 -12 28 -26 44 -21 24 -23 25 -14 6z"/>
<path d="M4523 2640 c-1 -11 4 -20 12 -20 8 0 19 -8 24 -17 6 -10 10 -13 10
-8 0 6 -10 22 -22 37 -21 25 -23 26 -24 8z"/>
<path d="M6327 2639 c4 -13 8 -18 11 -10 2 7 -1 18 -6 23 -8 8 -9 4 -5 -13z"/>
<path d="M4350 2642 c0 -12 19 -26 26 -19 2 2 -2 10 -11 17 -9 8 -15 8 -15 2z"/>
<path d="M4490 2636 c0 -8 5 -18 10 -21 6 -3 10 1 10 9 0 8 -4 18 -10 21 -5 3
-10 -1 -10 -9z"/>
<path d="M6350 2646 c0 -2 7 -7 16 -10 8 -3 12 -2 9 4 -6 10 -25 14 -25 6z"/>
<path d="M4310 2636 c0 -2 8 -10 18 -17 15 -13 16 -12 3 4 -13 16 -21 21 -21
13z"/>
<path d="M7375 2619 c-4 -12 -3 -25 2 -29 4 -5 8 4 9 21 1 34 -2 37 -11 8z"/>
<path d="M4417 2611 c-4 -17 -3 -21 5 -13 5 5 8 16 6 23 -3 8 -7 3 -11 -10z"/>
<path d="M4442 2602 c-2 -25 1 -27 34 -28 20 -1 40 -8 45 -15 4 -7 11 -11 14
-7 4 4 -6 14 -22 24 -15 10 -37 26 -48 36 -20 17 -21 17 -23 -10z"/>
<path d="M7183 2612 c5 -20 2 -22 -16 -17 -21 6 -21 6 -2 -6 11 -7 23 -17 27
-23 4 -5 6 4 4 22 -1 17 -6 35 -11 39 -4 4 -5 -2 -2 -15z"/>
<path d="M3216 2608 c3 -4 11 -5 19 -1 21 7 19 12 -4 10 -11 0 -18 -5 -15 -9z"/>
<path d="M2533 2596 c3 -8 2 -16 -3 -18 -16 -5 -23 -78 -8 -78 7 0 14 13 15
32 1 17 7 36 12 41 11 11 3 37 -11 37 -6 0 -8 -6 -5 -14z"/>
<path d="M4520 2606 c0 -2 8 -10 18 -17 15 -13 16 -12 3 4 -13 16 -21 21 -21
13z"/>
<path d="M6346 2598 c3 -4 11 -5 19 -1 21 7 19 12 -4 10 -11 0 -18 -5 -15 -9z"/>
<path d="M7127 2589 c4 -13 8 -18 11 -10 2 7 -1 18 -6 23 -8 8 -9 4 -5 -13z"/>
<path d="M3803 2582 c5 -20 2 -22 -16 -17 -21 6 -21 6 -2 -6 11 -7 23 -17 27
-23 4 -5 6 4 4 22 -1 17 -6 35 -11 39 -4 4 -5 -2 -2 -15z"/>
<path d="M7330 2581 c0 -6 4 -13 10 -16 6 -3 7 1 4 9 -7 18 -14 21 -14 7z"/>
<path d="M3747 2559 c4 -13 8 -18 11 -10 2 7 -1 18 -6 23 -8 8 -9 4 -5 -13z"/>
<path d="M4565 2560 c3 -5 8 -10 11 -10 2 0 4 5 4 10 0 6 -5 10 -11 10 -5 0
-7 -4 -4 -10z"/>
<path d="M5940 2557 c0 -9 4 -18 9 -21 5 -4 8 1 7 9 -3 21 -16 31 -16 12z"/>
<path d="M7146 2548 c3 -4 11 -5 19 -1 21 7 19 12 -4 10 -11 0 -18 -5 -15 -9z"/>
<path d="M7400 2540 c13 -24 17 -25 17 -5 0 8 -6 16 -14 19 -11 4 -11 1 -3
-14z"/>
<path d="M5887 2529 c4 -13 8 -18 11 -10 2 7 -1 18 -6 23 -8 8 -9 4 -5 -13z"/>
<path d="M5910 2536 c0 -2 7 -7 16 -10 8 -3 12 -2 9 4 -6 10 -25 14 -25 6z"/>
<path d="M2460 2516 c0 -9 5 -16 10 -16 6 0 10 4 10 9 0 6 -4 13 -10 16 -5 3
-10 -1 -10 -9z"/>
<path d="M3766 2518 c3 -4 11 -5 19 -1 21 7 19 12 -4 10 -11 0 -18 -5 -15 -9z"/>
<path d="M7330 2526 c0 -3 9 -10 20 -16 11 -6 20 -8 20 -6 0 3 -9 10 -20 16
-11 6 -20 8 -20 6z"/>
<path d="M7386 2517 c3 -10 9 -15 12 -12 3 3 0 11 -7 18 -10 9 -11 8 -5 -6z"/>
<path d="M5906 2488 c3 -4 11 -5 19 -1 21 7 19 12 -4 10 -11 0 -18 -5 -15 -9z"/>
<path d="M2449 2483 c-1 -5 -1 -11 -1 -14 1 -4 2 -23 4 -42 3 -47 11 -38 16
18 2 28 -1 45 -7 45 -6 0 -12 -3 -12 -7z"/>
<path d="M2518 2472 c-3 -9 -1 -26 3 -37 6 -15 8 -11 8 18 1 40 -4 48 -11 19z"/>
<path d="M7415 2470 c3 -5 8 -10 11 -10 2 0 4 5 4 10 0 6 -5 10 -11 10 -5 0
-7 -4 -4 -10z"/>
<path d="M7352 2445 c0 -16 2 -22 5 -12 2 9 2 23 0 30 -3 6 -5 -1 -5 -18z"/>
<path d="M7379 2458 c-1 -7 -1 -17 1 -23 1 -5 2 -22 2 -37 1 -16 7 -28 14 -28
11 0 11 7 0 38 -7 20 -11 43 -9 50 3 6 2 12 -1 12 -3 0 -7 -6 -7 -12z"/>
<path d="M3220 2397 c0 -9 4 -18 9 -21 5 -4 8 1 7 9 -3 21 -16 31 -16 12z"/>
<path d="M3167 2369 c4 -13 8 -18 11 -10 2 7 -1 18 -6 23 -8 8 -9 4 -5 -13z"/>
<path d="M7350 2371 c0 -25 6 -27 13 -6 4 8 2 17 -3 20 -6 4 -10 -3 -10 -14z"/>
<path d="M3190 2376 c0 -2 7 -7 16 -10 8 -3 12 -2 9 4 -6 10 -25 14 -25 6z"/>
<path d="M3713 2362 c5 -20 2 -22 -16 -17 -21 6 -21 6 -2 -6 11 -7 23 -17 27
-23 4 -5 6 4 4 22 -1 17 -6 35 -11 39 -4 4 -5 -2 -2 -15z"/>
<path d="M3657 2339 c4 -13 8 -18 11 -10 2 7 -1 18 -6 23 -8 8 -9 4 -5 -13z"/>
<path d="M3200 2339 c0 -5 -5 -7 -12 -3 -7 4 -8 3 -4 -4 4 -6 13 -9 21 -6 8 4
12 10 9 15 -7 12 -14 11 -14 -2z"/>
<path d="M7350 2321 c0 -25 6 -27 13 -6 4 8 2 17 -3 20 -6 4 -10 -3 -10 -14z"/>
<path d="M7382 2255 c0 -51 4 -82 10 -79 5 4 7 22 3 40 -3 21 -2 34 4 34 7 0
7 8 1 24 -5 13 -6 33 -3 45 3 12 1 21 -5 21 -7 0 -11 -31 -10 -85z"/>
<path d="M2481 2313 c-12 -14 -12 -15 0 -11 8 3 20 -2 27 -11 11 -13 11 -12 1
9 -6 14 -12 26 -13 26 0 1 -7 -5 -15 -13z"/>
<path d="M3676 2298 c3 -4 11 -5 19 -1 21 7 19 12 -4 10 -11 0 -18 -5 -15 -9z"/>
<path d="M5510 2267 c0 -9 4 -18 9 -21 5 -4 8 1 7 9 -3 21 -16 31 -16 12z"/>
<path d="M7350 2251 c0 -25 6 -27 13 -6 4 8 2 17 -3 20 -6 4 -10 -3 -10 -14z"/>
<path d="M5457 2239 c4 -13 8 -18 11 -10 2 7 -1 18 -6 23 -8 8 -9 4 -5 -13z"/>
<path d="M6840 2247 c0 -9 4 -18 9 -21 5 -4 8 1 7 9 -3 21 -16 31 -16 12z"/>
<path d="M2506 2238 c3 -4 11 -8 19 -8 7 0 15 -5 17 -12 3 -7 7 -5 11 6 4 10
3 15 -3 11 -6 -3 -10 -2 -10 2 0 5 -9 9 -19 9 -11 0 -17 -4 -15 -8z"/>
<path d="M5480 2246 c0 -2 7 -7 16 -10 8 -3 12 -2 9 4 -6 10 -25 14 -25 6z"/>
<path d="M6787 2219 c4 -13 8 -18 11 -10 2 7 -1 18 -6 23 -8 8 -9 4 -5 -13z"/>
<path d="M6810 2226 c0 -2 7 -7 16 -10 8 -3 12 -2 9 4 -6 10 -25 14 -25 6z"/>
<path d="M5490 2209 c0 -5 -5 -7 -12 -3 -7 4 -8 3 -4 -4 4 -6 13 -9 21 -6 8 4
12 10 9 15 -7 12 -14 11 -14 -2z"/>
<path d="M2571 2203 c2 -23 17 -47 33 -49 15 -2 15 0 4 14 -23 29 -38 44 -37
35z"/>
<path d="M2530 2196 c0 -2 7 -6 15 -10 8 -3 15 -1 15 4 0 6 -7 10 -15 10 -8 0
-15 -2 -15 -4z"/>
<path d="M3840 2187 c0 -9 4 -18 9 -21 5 -4 8 1 7 9 -3 21 -16 31 -16 12z"/>
<path d="M6820 2189 c0 -5 -5 -7 -12 -3 -7 4 -8 3 -4 -4 4 -6 13 -9 21 -6 8 4
12 10 9 15 -7 12 -14 11 -14 -2z"/>
<path d="M7346 2185 c-3 -8 -1 -15 4 -15 6 0 10 7 10 15 0 8 -2 15 -4 15 -2 0
-6 -7 -10 -15z"/>
<path d="M3787 2159 c4 -13 8 -18 11 -10 2 7 -1 18 -6 23 -8 8 -9 4 -5 -13z"/>
<path d="M3810 2166 c0 -2 7 -7 16 -10 8 -3 12 -2 9 4 -6 10 -25 14 -25 6z"/>
<path d="M6140 2157 c0 -9 4 -18 9 -21 5 -4 8 1 7 9 -3 21 -16 31 -16 12z"/>
<path d="M2555 2150 c3 -5 8 -10 11 -10 2 0 4 5 4 10 0 6 -5 10 -11 10 -5 0
-7 -4 -4 -10z"/>
<path d="M7346 2143 c-6 -14 -5 -15 5 -6 7 7 10 15 7 18 -3 3 -9 -2 -12 -12z"/>
<path d="M7376 2145 c4 -8 10 -12 15 -9 11 6 2 24 -11 24 -5 0 -7 -7 -4 -15z"/>
<path d="M6087 2129 c4 -13 8 -18 11 -10 2 7 -1 18 -6 23 -8 8 -9 4 -5 -13z"/>
<path d="M6110 2136 c0 -2 7 -7 16 -10 8 -3 12 -2 9 4 -6 10 -25 14 -25 6z"/>
<path d="M2635 2110 c2 -23 10 -33 30 -36 17 -3 6 24 -18 44 -11 9 -13 8 -12
-8z"/>
<path d="M3806 2118 c3 -4 11 -5 19 -1 21 7 19 12 -4 10 -11 0 -18 -5 -15 -9z"/>
<path d="M6400 2117 c0 -9 4 -18 9 -21 5 -4 8 1 7 9 -3 21 -16 31 -16 12z"/>
<path d="M7364 2109 c0 -13 3 -15 13 -7 7 6 13 12 13 13 0 2 -6 5 -13 8 -7 3
-13 -3 -13 -14z"/>
<path d="M6120 2099 c0 -5 -5 -7 -12 -3 -7 4 -8 3 -4 -4 4 -6 13 -9 21 -6 8 4
12 10 9 15 -7 12 -14 11 -14 -2z"/>
<path d="M6347 2089 c4 -13 8 -18 11 -10 2 7 -1 18 -6 23 -8 8 -9 4 -5 -13z"/>
<path d="M6370 2096 c0 -2 7 -7 16 -10 8 -3 12 -2 9 4 -6 10 -25 14 -25 6z"/>
<path d="M7327 2093 c-4 -3 -7 -11 -7 -17 0 -6 5 -5 12 2 6 6 9 14 7 17 -3 3
-9 2 -12 -2z"/>
<path d="M2630 2065 c13 -14 26 -25 28 -25 3 0 -5 11 -18 25 -13 14 -26 25
-28 25 -3 0 5 -11 18 -25z"/>
<path d="M7360 2070 c-9 -6 -10 -10 -3 -10 6 0 15 5 18 10 8 12 4 12 -15 0z"/>
<path d="M2690 2051 c0 -14 47 -67 53 -61 3 3 -8 20 -24 38 -16 18 -29 28 -29
23z"/>
<path d="M6366 2048 c3 -4 11 -5 19 -1 21 7 19 12 -4 10 -11 0 -18 -5 -15 -9z"/>
<path d="M2754 2024 c2 -10 8 -20 14 -22 17 -5 15 13 -2 27 -12 10 -14 9 -12
-5z"/>
<path d="M2720 1961 c19 -16 37 -28 39 -25 5 5 -24 29 -54 45 -11 6 -4 -3 15
-20z"/>
<path d="M2770 1982 c0 -12 19 -26 26 -19 2 2 -2 10 -11 17 -9 8 -15 8 -15 2z"/>
<path d="M7317 1983 c-6 -14 -2 -36 8 -40 6 -2 12 8 13 22 2 23 -12 35 -21 18z"/>
<path d="M2817 1944 c6 -16 19 -18 27 -5 3 5 -3 11 -13 14 -14 3 -18 1 -14 -9z"/>
<path d="M2780 1915 c7 -9 15 -13 17 -11 7 7 -7 26 -19 26 -6 0 -6 -6 2 -15z"/>
<path d="M2884 1918 c2 -7 8 -13 15 -13 6 0 15 -5 19 -11 10 -15 42 -25 42
-14 0 6 -6 10 -14 10 -8 0 -17 7 -20 16 -3 9 -13 14 -20 11 -8 -3 -17 -2 -20
4 -2 5 -3 4 -2 -3z"/>
<path d="M7197 1887 c-3 -8 1 -14 8 -14 7 0 11 6 8 14 -3 7 -6 13 -8 13 -2 0
-5 -6 -8 -13z"/>
<path d="M7287 1887 c4 -7 -1 -8 -12 -3 -14 5 -16 4 -7 -7 7 -8 9 -17 5 -20
-3 -4 -4 -7 -1 -7 3 0 13 11 21 23 12 19 13 24 2 24 -8 0 -11 -5 -8 -10z"/>
<path d="M2886 1871 c-4 -5 -2 -12 3 -15 5 -4 12 -2 15 3 4 5 2 12 -3 15 -5 4
-12 2 -15 -3z"/>
<path d="M2980 1865 c7 -8 17 -12 22 -9 6 4 5 10 -3 15 -22 14 -33 10 -19 -6z"/>
<path d="M3080 1870 c0 -5 7 -10 16 -10 8 0 12 5 9 10 -3 6 -10 10 -16 10 -5
0 -9 -4 -9 -10z"/>
<path d="M7235 1871 c3 -6 -3 -14 -12 -20 -10 -6 -13 -11 -7 -11 12 0 34 20
34 32 0 4 -5 8 -11 8 -5 0 -8 -4 -4 -9z"/>
<path d="M3031 1854 c13 -16 29 -19 29 -5 0 5 -9 11 -21 14 -16 4 -18 3 -8 -9z"/>
<path d="M2942 1840 c2 -6 7 -11 11 -11 4 0 23 -8 42 -19 41 -23 45 -24 45
-10 0 6 -6 10 -13 10 -7 0 -30 9 -51 21 -21 11 -36 15 -34 9z"/>
<path d="M7245 1839 c-4 -6 -5 -12 -2 -15 2 -3 7 2 10 11 7 17 1 20 -8 4z"/>
<path d="M3235 1830 c-3 -5 -1 -10 4 -10 6 0 11 5 11 10 0 6 -2 10 -4 10 -3 0
-8 -4 -11 -10z"/>
<path d="M3160 1818 c0 -6 3 -8 6 -5 4 3 16 2 28 -4 20 -10 20 -10 2 5 -24 19
-36 20 -36 4z"/>
<path d="M7166 1814 c-5 -14 -9 -14 -24 -3 -15 13 -16 12 -3 -4 13 -16 15 -16
32 -1 10 9 22 13 28 10 5 -4 12 -3 15 2 2 4 -6 9 -19 10 -13 1 -26 -5 -29 -14z"/>
<path d="M3070 1800 c0 -5 7 -7 15 -4 8 4 15 8 15 10 0 2 -7 4 -15 4 -8 0 -15
-4 -15 -10z"/>
<path d="M3235 1800 c-3 -5 -1 -10 4 -10 6 0 11 5 11 10 0 6 -2 10 -4 10 -3 0
-8 -4 -11 -10z"/>
<path d="M5420 1802 c0 -5 7 -9 15 -9 8 0 12 4 9 9 -3 4 -9 8 -15 8 -5 0 -9
-4 -9 -8z"/>
<path d="M5460 1804 c0 -2 9 -8 20 -14 15 -8 18 -8 14 3 -4 11 -34 21 -34 11z"/>
<path d="M3120 1790 c0 -5 5 -10 11 -10 5 0 7 5 4 10 -3 6 -8 10 -11 10 -2 0
-4 -4 -4 -10z"/>
<path d="M3270 1788 c0 -5 11 -8 25 -8 14 0 25 3 25 8 0 4 -11 7 -25 7 -14 0
-25 -3 -25 -7z"/>
<path d="M5510 1790 c0 -5 5 -10 11 -10 5 0 7 5 4 10 -3 6 -8 10 -11 10 -2 0
-4 -4 -4 -10z"/>
<path d="M3350 1780 c0 -5 10 -10 23 -10 18 0 19 2 7 10 -19 13 -30 13 -30 0z"/>
<path d="M3406 1781 c9 -9 45 -11 39 -2 -3 6 -14 9 -25 8 -10 -1 -17 -3 -14
-6z"/>
<path d="M3675 1780 c-4 -6 -2 -17 4 -23 9 -9 14 -8 21 3 7 10 10 11 10 3 0
-7 8 -13 18 -13 15 1 14 2 -3 12 -11 7 -22 11 -24 9 -2 -1 -7 3 -11 9 -6 9 -9
9 -15 0z"/>
<path d="M7110 1785 c0 -2 6 -8 13 -14 10 -8 14 -7 14 2 0 8 -6 14 -14 14 -7
0 -13 -1 -13 -2z"/>
<path d="M3621 1771 c-1 -8 -7 -11 -18 -7 -10 4 -14 3 -9 -1 14 -14 66 -10 66
5 0 11 -3 12 -14 3 -11 -9 -15 -9 -19 1 -4 10 -6 10 -6 -1z"/>
<path d="M3789 1763 c-13 -16 -12 -17 4 -4 9 7 17 15 17 17 0 8 -8 3 -21 -13z"/>
<path d="M5540 1770 c0 -4 19 -11 43 -15 23 -4 51 -10 61 -12 11 -2 17 -1 13
3 -10 11 -117 33 -117 24z"/>
<path d="M3180 1766 c0 -3 9 -10 19 -15 14 -8 22 -7 32 7 11 14 11 15 -1 5 -9
-8 -19 -9 -32 -2 -10 5 -18 7 -18 5z"/>
<path d="M3455 1761 c-7 -12 12 -24 25 -16 11 7 4 25 -10 25 -5 0 -11 -4 -15
-9z"/>
<path d="M3506 1761 c9 -9 45 -11 39 -2 -3 6 -14 9 -25 8 -10 -1 -17 -3 -14
-6z"/>
<path d="M4165 1760 c-3 -6 1 -7 9 -4 18 7 21 14 7 14 -6 0 -13 -4 -16 -10z"/>
<path d="M7165 1750 c10 -11 20 -20 23 -20 3 0 -3 9 -13 20 -10 11 -20 20 -23
20 -3 0 3 -9 13 -20z"/>
<path d="M3250 1750 c0 -5 5 -10 11 -10 5 0 7 5 4 10 -3 6 -8 10 -11 10 -2 0
-4 -4 -4 -10z"/>
<path d="M3294 1748 c-4 -7 -4 -10 1 -6 4 4 15 2 24 -5 14 -11 14 -10 2 6 -16
20 -18 21 -27 5z"/>
<path d="M3930 1750 c0 -6 7 -10 15 -10 8 0 15 2 15 4 0 2 -7 6 -15 10 -8 3
-15 1 -15 -4z"/>
<path d="M5500 1746 c0 -2 7 -9 15 -16 9 -7 15 -8 15 -2 0 5 -7 12 -15 16 -8
3 -15 4 -15 2z"/>
<path d="M3340 1731 c0 -6 5 -13 12 -17 6 -4 8 -3 4 4 -3 5 0 13 6 15 8 3 6 6
-4 6 -10 1 -18 -3 -18 -8z"/>
<path d="M3816 1733 c-13 -13 -5 -21 19 -19 14 0 25 2 25 3 0 7 -38 21 -44 16z"/>
<path d="M3866 1713 c0 -17 -5 -31 -15 -35 -13 -6 -12 -7 3 -5 14 1 21 11 23
35 2 17 0 32 -4 32 -5 0 -8 -12 -7 -27z"/>
<path d="M4047 1729 c7 -7 15 -10 18 -7 3 3 -2 9 -12 12 -14 6 -15 5 -6 -5z"/>
<path d="M5698 1728 c14 -14 54 -18 50 -6 -2 6 -16 12 -31 12 -15 1 -23 -2
-19 -6z"/>
<path d="M5782 1728 c-9 -9 -8 -16 5 -30 17 -19 69 -26 58 -7 -4 6 -13 8 -20
5 -17 -6 -39 19 -30 34 8 14 2 13 -13 -2z"/>
<path d="M7151 1724 c0 -11 3 -14 6 -6 3 7 2 16 -1 19 -3 4 -6 -2 -5 -13z"/>
<path d="M3698 1718 c8 -10 21 -14 34 -10 16 4 19 2 13 -9 -7 -11 -6 -12 7 -2
8 7 17 11 20 8 3 -3 11 1 17 9 10 12 9 14 -6 11 -10 -2 -19 -4 -20 -5 -9 -6
-51 -3 -63 5 -13 7 -13 6 -2 -7z"/>
<path d="M3980 1719 c0 -5 -4 -7 -10 -4 -17 10 -11 -2 8 -16 9 -7 14 -9 10 -5
-4 5 -3 15 3 23 9 9 8 13 0 13 -6 0 -11 -5 -11 -11z"/>
<path d="M7054 1719 c-4 -7 -3 -9 4 -5 5 3 19 -6 31 -21 l20 -28 -6 25 c-5 25
-5 25 11 5 17 -20 17 -20 6 3 -6 12 -15 20 -21 16 -5 -3 -16 -1 -24 6 -10 8
-15 8 -21 -1z"/>
<path d="M3585 1708 c-19 -8 -19 -8 1 -5 12 3 28 0 37 -4 10 -6 18 -5 22 1 4
6 10 8 15 5 5 -3 11 -1 14 4 7 11 -13 9 -31 -2 -7 -5 -13 -4 -13 1 0 11 -20
11 -45 0z"/>
<path d="M3907 1709 c7 -7 15 -10 18 -7 3 3 -2 9 -12 12 -14 6 -15 5 -6 -5z"/>
<path d="M4090 1712 c-30 -2 -58 -6 -62 -10 -6 -6 59 -6 132 1 49 4 -12 12
-70 9z"/>
<path d="M5548 1713 c6 -3 9 -10 5 -16 -4 -7 2 -5 13 3 10 8 20 15 22 16 2 1
-10 1 -25 1 -15 0 -22 -2 -15 -4z"/>
<path d="M3409 1694 c-7 -9 -6 -12 6 -10 22 3 40 23 20 23 -8 0 -20 -6 -26
-13z"/>
<path d="M3476 1698 c3 -5 10 -6 15 -3 13 9 11 12 -6 12 -8 0 -12 -4 -9 -9z"/>
<path d="M5640 1694 c0 -6 11 -16 23 -21 19 -9 24 -8 24 3 0 8 -6 13 -12 10
-7 -2 -18 1 -24 7 -7 7 -11 7 -11 1z"/>
<path d="M7016 1691 c-4 -5 3 -7 14 -4 23 6 26 13 6 13 -8 0 -17 -4 -20 -9z"/>
<path d="M3790 1686 c0 -1 9 -9 20 -19 15 -13 20 -14 20 -3 0 7 -9 16 -20 19
-11 3 -20 4 -20 3z"/>
<path d="M6970 1675 c-10 -12 -10 -15 2 -15 8 0 15 7 15 15 0 8 -1 15 -2 15
-2 0 -8 -7 -15 -15z"/>
<path d="M8050 1686 c0 -2 8 -10 18 -17 15 -13 16 -12 3 4 -13 16 -21 21 -21
13z"/>
<path d="M3255 1669 c-4 -5 -11 -6 -17 -3 -7 5 -8 2 -3 -5 5 -9 11 -9 17 -3 6
6 17 8 24 5 8 -3 14 -3 14 0 0 10 -30 16 -35 6z"/>
<path d="M3340 1669 c0 -5 5 -7 10 -4 6 3 10 8 10 11 0 2 -4 4 -10 4 -5 0 -10
-5 -10 -11z"/>
<path d="M3550 1675 c0 -2 14 -10 31 -19 23 -12 28 -12 20 -2 -11 12 -51 29
-51 21z"/>
<path d="M3720 1676 c0 -2 7 -7 16 -10 8 -3 12 -2 9 4 -6 10 -25 14 -25 6z"/>
<path d="M5885 1670 c4 -6 11 -8 16 -5 14 9 11 15 -7 15 -8 0 -12 -5 -9 -10z"/>
<path d="M5930 1668 c-12 -8 -12 -9 2 -5 9 3 19 1 22 -6 3 -9 5 -9 5 0 1 18
-13 23 -29 11z"/>
<path d="M6148 1669 c-15 -4 -29 -4 -32 -1 -3 3 -6 0 -6 -6 0 -6 5 -14 10 -17
6 -3 10 -2 10 3 0 5 14 8 30 7 17 -1 33 2 37 8 3 5 1 7 -5 3 -5 -3 -12 -2 -14
2 -1 5 -15 5 -30 1z"/>
<path d="M6277 1666 c-8 -19 12 -33 23 -16 5 9 9 9 13 1 4 -7 5 -8 4 0 -2 6
-6 10 -11 9 -5 -1 -12 4 -16 10 -5 8 -9 7 -13 -4z"/>
<path d="M7810 1676 c0 -2 7 -7 16 -10 8 -3 12 -2 9 4 -6 10 -25 14 -25 6z"/>
<path d="M3400 1661 c0 -13 31 -43 38 -36 3 3 -4 14 -16 25 -12 12 -22 16 -22
11z"/>
<path d="M5620 1666 c0 -2 7 -7 16 -10 8 -3 12 -2 9 4 -6 10 -25 14 -25 6z"/>
<path d="M5755 1660 c-3 -6 1 -7 9 -4 18 7 21 14 7 14 -6 0 -13 -4 -16 -10z"/>
<path d="M5977 1663 c-14 -13 -6 -18 28 -20 19 -1 35 3 35 8 0 6 4 7 10 4 19
-11 51 -14 44 -4 -3 6 -8 8 -11 5 -3 -3 -14 -1 -24 4 -12 7 -20 7 -24 0 -5 -8
-11 -7 -21 1 -11 9 -14 8 -14 -2 0 -11 -2 -11 -8 -1 -5 7 -11 9 -15 5z"/>
<path d="M6339 1653 c-13 -16 -12 -17 3 -5 10 8 19 9 22 3 8 -12 46 -10 46 2
0 5 -7 6 -16 3 -9 -4 -22 -2 -29 4 -9 7 -16 5 -26 -7z"/>
<path d="M6565 1660 c-10 -17 5 -33 19 -21 7 6 16 7 20 3 10 -10 176 -10 176
0 0 4 -5 8 -11 8 -5 0 -7 6 -3 13 6 9 5 9 -7 0 -12 -10 -18 -10 -28 0 -10 9
-12 9 -9 -3 2 -9 -3 -14 -12 -11 -8 2 -19 4 -25 5 -5 1 -16 5 -23 10 -8 4 -11
3 -10 -4 4 -18 -38 -22 -52 -5 -14 17 -26 19 -35 5z"/>
<path d="M6817 1656 c-4 -9 0 -13 11 -12 9 2 18 8 20 14 5 17 -25 15 -31 -2z"/>
<path d="M6885 1660 c-2 -3 13 -7 33 -8 20 -2 33 0 29 4 -9 9 -57 12 -62 4z"/>
<path d="M3641 1651 c-8 -5 -9 -11 -3 -15 5 -3 12 1 16 9 6 17 6 18 -13 6z"/>
<path d="M5719 1637 c14 -15 28 -27 33 -27 5 0 39 -29 75 -65 37 -35 69 -62
71 -60 5 5 -63 75 -72 75 -4 0 -20 16 -37 35 -17 19 -36 35 -42 35 -6 0 -20 8
-31 17 -15 13 -14 10 3 -10z"/>
<path d="M6205 1650 c-2 -3 10 -7 26 -8 16 -1 29 1 29 6 0 9 -49 11 -55 2z"/>
<path d="M6420 1647 c0 -5 7 -7 15 -3 8 3 15 1 15 -4 0 -6 4 -10 10 -10 5 0 7
6 4 14 -6 16 -44 18 -44 3z"/>
<path d="M6530 1651 c0 -4 -11 -7 -25 -6 -14 2 -23 0 -20 -4 2 -4 14 -7 27 -5
13 1 26 3 31 3 11 1 8 21 -3 21 -5 0 -10 -4 -10 -9z"/>
<path d="M3205 1640 c3 -5 14 -10 23 -10 15 0 15 2 2 10 -20 13 -33 13 -25 0z"/>
<path d="M3310 1639 c0 -5 5 -7 10 -4 6 3 10 8 10 11 0 2 -4 4 -10 4 -5 0 -10
-5 -10 -11z"/>
<path d="M5778 1643 c7 -3 16 -2 19 1 4 3 -2 6 -13 5 -11 0 -14 -3 -6 -6z"/>
<path d="M5816 1637 c3 -10 9 -15 12 -12 3 3 0 11 -7 18 -10 9 -11 8 -5 -6z"/>
<path d="M5920 1646 c0 -2 7 -7 16 -10 8 -3 12 -2 9 4 -6 10 -25 14 -25 6z"/>
<path d="M6856 1642 c-3 -5 1 -9 9 -9 8 0 12 4 9 9 -3 4 -7 8 -9 8 -2 0 -6 -4
-9 -8z"/>
<path d="M3126 1624 c-11 -8 -28 -14 -38 -14 -10 0 -18 -4 -18 -9 0 -4 13 -8
29 -7 16 1 27 4 25 8 -3 4 4 11 13 17 10 5 16 12 13 14 -3 3 -14 -1 -24 -9z"/>
<path d="M3269 1627 c6 -8 7 -18 3 -22 -4 -5 -1 -5 6 -1 10 6 10 11 1 22 -6 8
-14 14 -16 14 -3 0 0 -6 6 -13z"/>
<path d="M3384 1632 c3 -5 0 -13 -6 -15 -9 -4 -10 -6 -1 -6 17 -1 25 16 12 25
-7 4 -9 3 -5 -4z"/>
<path d="M7002 1626 c7 -8 15 -12 17 -11 5 6 -10 25 -20 25 -5 0 -4 -6 3 -14z"/>
<path d="M5705 1610 c10 -11 20 -20 23 -20 3 0 -3 9 -13 20 -10 11 -20 20 -23
20 -3 0 3 -9 13 -20z"/>
<path d="M8095 1575 c4 -31 3 -54 -1 -53 -5 2 -10 0 -11 -4 -6 -17 -2 -20 12
-8 18 15 21 120 4 120 -7 0 -8 -18 -4 -55z"/>
<path d="M3234 1612 c3 -5 0 -13 -6 -15 -9 -4 -10 -6 -1 -6 17 -1 25 16 12 25
-7 4 -9 3 -5 -4z"/>
<path d="M3300 1616 c0 -2 7 -7 16 -10 8 -3 12 -2 9 4 -6 10 -25 14 -25 6z"/>
<path d="M6920 1611 c0 -5 7 -12 16 -15 14 -5 15 -4 4 9 -14 17 -20 19 -20 6z"/>
<path d="M3187 1599 c7 -7 15 -10 18 -7 3 3 -2 9 -12 12 -14 6 -15 5 -6 -5z"/>
<path d="M5670 1606 c0 -2 8 -10 18 -17 15 -13 16 -12 3 4 -13 16 -21 21 -21
13z"/>
<path d="M6046 1601 c9 -9 45 -11 39 -2 -3 6 -14 9 -25 8 -10 -1 -17 -3 -14
-6z"/>
<path d="M6115 1600 c11 -4 23 -6 28 -3 4 2 7 -2 7 -9 0 -9 3 -9 8 -2 4 6 26
10 50 9 24 -1 45 2 48 6 2 4 -33 7 -78 7 -49 0 -75 -4 -63 -8z"/>
<path d="M6305 1600 c4 -6 11 -8 16 -5 14 9 11 15 -7 15 -8 0 -12 -5 -9 -10z"/>
<path d="M6400 1600 c0 -5 11 -9 25 -8 27 3 25 10 -5 15 -11 2 -20 -2 -20 -7z"/>
<path d="M6895 1601 c-6 -11 13 -26 22 -17 4 3 1 6 -6 6 -7 0 -9 5 -6 10 3 6
4 10 1 10 -3 0 -7 -4 -11 -9z"/>
<path d="M3016 1585 c-11 -8 -14 -15 -8 -15 7 0 14 0 17 0 3 0 5 3 4 6 0 4 5
11 13 15 7 5 9 9 3 9 -5 -1 -19 -7 -29 -15z"/>
<path d="M5916 1578 c10 -14 21 -24 23 -22 3 3 -6 15 -18 27 l-24 22 19 -27z"/>
<path d="M6525 1591 c5 -8 82 -8 90 1 3 3 -17 5 -44 5 -28 0 -49 -3 -46 -6z"/>
<path d="M6664 1591 c5 -8 56 -3 56 5 0 2 -14 4 -31 4 -16 0 -28 -4 -25 -9z"/>
<path d="M6735 1591 c3 -5 18 -7 32 -5 41 8 41 14 -1 14 -20 0 -35 -4 -31 -9z"/>
<path d="M6811 1596 c8 -8 69 -14 69 -7 0 4 -16 8 -36 9 -20 1 -35 0 -33 -2z"/>
<path d="M5840 1581 c0 -5 7 -12 16 -15 9 -3 12 -11 8 -18 -4 -7 -4 -10 1 -6
4 4 14 3 22 -4 7 -6 15 -9 18 -7 2 3 -11 17 -30 32 -19 15 -35 24 -35 18z"/>
<path d="M7880 1586 c0 -2 7 -9 15 -16 9 -7 15 -8 15 -2 0 5 -7 12 -15 16 -8
3 -15 4 -15 2z"/>
<path d="M8010 1586 c0 -2 8 -10 18 -17 15 -13 16 -12 3 4 -13 16 -21 21 -21
13z"/>
<path d="M2965 1560 c-12 -4 -27 -16 -35 -26 -14 -18 -14 -18 3 -5 14 11 17
11 17 0 0 -8 7 -4 15 8 9 13 22 20 30 17 8 -4 15 -4 15 -1 0 10 -26 14 -45 7z"/>
<path d="M5776 1556 c3 -8 13 -17 22 -21 13 -5 13 -2 -3 15 -21 24 -26 25 -19
6z"/>
<path d="M5765 1526 c10 -14 19 -26 22 -26 7 0 -17 39 -28 46 -6 3 -3 -5 6
-20z"/>
<path d="M7550 1509 c0 -5 5 -7 10 -4 6 3 10 8 10 11 0 2 -4 4 -10 4 -5 0 -10
-5 -10 -11z"/>
<path d="M2893 1494 c-17 -18 -17 -29 0 -15 8 6 17 8 20 4 4 -3 7 -1 7 5 0 18
-14 21 -27 6z"/>
<path d="M2930 1502 c0 -5 7 -9 15 -9 8 0 12 4 9 9 -3 4 -9 8 -15 8 -5 0 -9
-4 -9 -8z"/>
<path d="M5910 1503 c0 -5 13 -17 28 -27 l27 -19 -24 26 c-26 28 -31 32 -31
20z"/>
<path d="M5970 1490 c6 -11 13 -20 16 -20 2 0 0 9 -6 20 -6 11 -13 20 -16 20
-2 0 0 -9 6 -20z"/>
<path d="M5839 1453 c24 -29 45 -53 47 -53 11 0 -28 53 -56 77 -32 26 -32 24
9 -24z"/>
<path d="M5856 1485 c4 -8 11 -15 16 -15 6 0 5 6 -2 15 -7 8 -14 15 -16 15 -2
0 -1 -7 2 -15z"/>
<path d="M6045 1480 c10 -11 23 -20 28 -20 6 0 2 9 -8 20 -10 11 -23 20 -28
20 -6 0 -2 -9 8 -20z"/>
<path d="M7625 1490 c-3 -6 1 -7 9 -4 18 7 21 14 7 14 -6 0 -13 -4 -16 -10z"/>
<path d="M2846 1462 c-3 -5 1 -9 9 -9 8 0 12 4 9 9 -3 4 -7 8 -9 8 -2 0 -6 -4
-9 -8z"/>
<path d="M5925 1440 c14 -14 25 -32 25 -39 0 -7 -9 -3 -20 10 -10 13 -19 19
-20 12 0 -6 5 -15 10 -18 6 -4 8 -16 5 -28 -2 -12 -2 -16 1 -9 11 24 26 12 20
-15 -5 -20 -4 -24 3 -13 8 12 14 9 33 -15 13 -16 26 -36 30 -44 4 -11 7 -12 7
-3 1 7 -15 34 -34 59 -19 25 -33 48 -30 51 3 3 6 3 8 1 44 -55 77 -105 78
-118 0 -11 2 -12 6 -3 4 10 8 10 21 1 10 -7 7 -2 -5 12 -42 45 -142 177 -137
181 2 3 -3 5 -11 5 -11 0 -9 -7 10 -27z"/>
<path d="M6030 1446 c0 -2 8 -10 18 -17 15 -13 16 -12 3 4 -13 16 -21 21 -21
13z"/>
<path d="M3823 1422 c5 -20 2 -22 -16 -17 -21 6 -21 6 -2 -6 11 -7 23 -17 27
-23 4 -5 6 4 4 22 -1 17 -6 35 -11 39 -4 4 -5 -2 -2 -15z"/>
<path d="M8025 1430 c-4 -6 -10 -8 -14 -5 -5 2 -17 -5 -27 -17 -14 -15 -16
-22 -6 -25 6 -3 10 -9 7 -13 -3 -5 -1 -11 4 -14 5 -4 8 2 6 11 -1 10 9 30 23
46 14 15 23 27 19 27 -3 0 -9 -5 -12 -10z m-15 -14 c0 -2 -8 -10 -17 -17 -16
-13 -17 -12 -4 4 13 16 21 21 21 13z"/>
<path d="M2804 1402 c3 -18 18 -20 24 -4 1 5 -4 12 -12 15 -9 4 -13 0 -12 -11z"/>
<path d="M3767 1399 c4 -13 8 -18 11 -10 2 7 -1 18 -6 23 -8 8 -9 4 -5 -13z"/>
<path d="M5980 1416 c0 -2 8 -10 18 -17 15 -13 16 -12 3 4 -13 16 -21 21 -21
13z"/>
<path d="M6085 1400 c10 -11 20 -20 23 -20 3 0 -3 9 -13 20 -10 11 -20 20 -23
20 -3 0 3 -9 13 -20z"/>
<path d="M6136 1405 c4 -8 11 -15 16 -15 6 0 5 6 -2 15 -7 8 -14 15 -16 15 -2
0 -1 -7 2 -15z"/>
<path d="M2840 1370 c-9 -6 -10 -10 -3 -10 6 0 15 5 18 10 8 12 4 12 -15 0z"/>
<path d="M6192 1356 c15 -14 30 -26 34 -26 11 0 -18 31 -40 42 -16 8 -15 4 6
-16z"/>
<path d="M2769 1365 c0 0 -2 -10 -3 -22 -3 -29 10 -30 17 -2 3 12 10 18 16 15
5 -4 12 -2 16 4 4 7 -30 11 -46 5z"/>
<path d="M3786 1358 c3 -4 11 -5 19 -1 21 7 19 12 -4 10 -11 0 -18 -5 -15 -9z"/>
<path d="M6170 1325 c13 -14 26 -25 28 -25 3 0 -5 11 -18 25 -13 14 -26 25
-28 25 -3 0 5 -11 18 -25z"/>
<path d="M6260 1300 c0 -5 5 -10 11 -10 5 0 7 5 4 10 -3 6 -8 10 -11 10 -2 0
-4 -4 -4 -10z"/>
<path d="M2720 1291 c-8 -6 -17 -8 -21 -6 -3 3 -14 -4 -24 -15 -10 -11 -15
-20 -10 -20 4 0 0 -11 -9 -25 -14 -21 -14 -24 -1 -19 8 4 15 12 15 19 0 6 9
20 20 30 17 15 22 16 37 4 15 -11 16 -11 6 1 -10 11 -9 16 5 26 19 15 5 19
-18 5z m-20 -15 c0 -2 -8 -10 -17 -17 -16 -13 -17 -12 -4 4 13 16 21 21 21 13z"/>
<path d="M5873 1282 c5 -20 2 -22 -16 -17 -21 6 -21 6 -2 -6 11 -7 23 -17 27
-23 4 -5 6 4 4 22 -1 17 -6 35 -11 39 -4 4 -5 -2 -2 -15z"/>
<path d="M5984 1285 c3 -21 16 -31 16 -12 0 9 -4 18 -9 21 -5 4 -8 -1 -7 -9z"/>
<path d="M7541 1286 c-10 -11 -9 -14 1 -12 14 2 23 15 15 22 -2 2 -10 -2 -16
-10z"/>
<path d="M5817 1259 c4 -13 8 -18 11 -10 2 7 -1 18 -6 23 -8 8 -9 4 -5 -13z"/>
<path d="M6300 1276 c0 -2 8 -10 18 -17 15 -13 16 -12 3 4 -13 16 -21 21 -21
13z"/>
<path d="M3310 1257 c0 -9 4 -18 9 -21 5 -4 8 1 7 9 -3 21 -16 31 -16 12z"/>
<path d="M4460 1270 c-6 -39 -4 -512 2 -516 10 -6 9 -19 11 264 1 129 -1 239
-5 245 -4 7 -8 10 -8 7z"/>
<path d="M7906 1253 c-6 -14 -5 -15 5 -6 7 7 10 15 7 18 -3 3 -9 -2 -12 -12z"/>
<path d="M3257 1229 c4 -13 8 -18 11 -10 2 7 -1 18 -6 23 -8 8 -9 4 -5 -13z"/>
<path d="M6050 1247 c0 -4 9 -21 20 -39 11 -18 20 -27 20 -20 0 8 -9 25 -20
39 -11 14 -20 23 -20 20z"/>
<path d="M2689 1223 c-13 -16 -12 -17 4 -4 9 7 17 15 17 17 0 8 -8 3 -21 -13z"/>
<path d="M3280 1236 c0 -2 7 -7 16 -10 8 -3 12 -2 9 4 -6 10 -25 14 -25 6z"/>
<path d="M4531 1224 c0 -11 3 -14 6 -6 3 7 2 16 -1 19 -3 4 -6 -2 -5 -13z"/>
<path d="M6280 1236 c0 -2 8 -10 18 -17 15 -13 16 -12 3 4 -13 16 -21 21 -21
13z"/>
<path d="M5080 1217 c0 -9 4 -18 9 -21 5 -4 8 1 7 9 -3 21 -16 31 -16 12z"/>
<path d="M5836 1218 c3 -4 11 -5 19 -1 21 7 19 12 -4 10 -11 0 -18 -5 -15 -9z"/>
<path d="M6040 1212 c6 -13 14 -21 18 -18 3 4 -2 14 -12 24 -18 16 -18 16 -6
-6z"/>
<path d="M7594 1198 l-19 -23 23 19 c12 11 22 21 22 23 0 8 -8 2 -26 -19z"/>
<path d="M3290 1199 c0 -5 -5 -7 -12 -3 -7 4 -8 3 -4 -4 4 -6 13 -9 21 -6 8 4
12 10 9 15 -7 12 -14 11 -14 -2z"/>
<path d="M5027 1189 c4 -13 8 -18 11 -10 2 7 -1 18 -6 23 -8 8 -9 4 -5 -13z"/>
<path d="M6385 1200 c3 -5 11 -10 16 -10 6 0 7 5 4 10 -3 6 -11 10 -16 10 -6
0 -7 -4 -4 -10z"/>
<path d="M5050 1196 c0 -2 7 -7 16 -10 8 -3 12 -2 9 4 -6 10 -25 14 -25 6z"/>
<path d="M7857 1172 c-10 -10 -17 -23 -17 -28 0 -4 7 2 16 14 9 14 22 21 31
18 8 -3 11 -1 8 4 -9 15 -20 12 -38 -8z"/>
<path d="M6040 1156 c5 -13 6 -26 4 -29 -3 -3 -1 -8 4 -11 6 -3 9 2 7 11 -2
10 -4 26 -4 36 -1 9 -5 17 -11 17 -6 0 -6 -9 0 -24z"/>
<path d="M7750 1171 c0 -7 -5 -9 -12 -5 -7 5 -8 3 -3 -5 5 -9 10 -10 18 -2 6
6 8 14 4 18 -4 3 -7 1 -7 -6z"/>
<path d="M5060 1159 c0 -5 -5 -7 -12 -3 -7 4 -8 3 -4 -4 4 -6 13 -9 21 -6 8 4
12 10 9 15 -7 12 -14 11 -14 -2z"/>
<path d="M6087 1160 c6 -8 18 -31 27 -50 10 -22 14 -26 10 -10 -3 14 -6 33 -7
42 -1 9 -3 15 -6 13 -2 -3 -11 1 -20 8 -14 10 -14 10 -4 -3z"/>
<path d="M6389 1156 c13 -16 51 -41 51 -33 0 2 -15 14 -32 27 -21 15 -28 17
-19 6z"/>
<path d="M4170 1137 c0 -9 4 -18 9 -21 5 -4 8 1 7 9 -3 21 -16 31 -16 12z"/>
<path d="M4410 1120 c-6 -11 -8 -20 -6 -20 3 0 10 9 16 20 6 11 8 20 6 20 -3
0 -10 -9 -16 -20z"/>
<path d="M6070 1134 c0 -5 7 -18 15 -28 8 -11 15 -16 15 -10 0 5 -7 18 -15 28
-8 11 -15 16 -15 10z"/>
<path d="M7480 1124 c0 -8 5 -12 10 -9 6 4 8 11 5 16 -9 14 -15 11 -15 -7z"/>
<path d="M4117 1109 c4 -13 8 -18 11 -10 2 7 -1 18 -6 23 -8 8 -9 4 -5 -13z"/>
<path d="M4512 1094 c-2 -28 2 -41 11 -41 8 0 14 6 14 13 0 7 -4 11 -8 8 -4
-2 -10 10 -12 28 -3 30 -4 29 -5 -8z"/>
<path d="M5440 1117 c0 -9 4 -18 9 -21 5 -4 8 1 7 9 -3 21 -16 31 -16 12z"/>
<path d="M7421 1114 c0 -11 3 -14 6 -6 3 7 2 16 -1 19 -3 4 -6 -2 -5 -13z"/>
<path d="M2585 1110 c-3 -6 1 -7 9 -4 18 7 21 14 7 14 -6 0 -13 -4 -16 -10z"/>
<path d="M4140 1116 c0 -2 7 -7 16 -10 8 -3 12 -2 9 4 -6 10 -25 14 -25 6z"/>
<path d="M4437 1091 c-4 -17 -3 -21 5 -13 5 5 8 16 6 23 -3 8 -7 3 -11 -10z"/>
<path d="M5387 1089 c4 -13 8 -18 11 -10 2 7 -1 18 -6 23 -8 8 -9 4 -5 -13z"/>
<path d="M6460 1106 c0 -2 7 -7 16 -10 8 -3 12 -2 9 4 -6 10 -25 14 -25 6z"/>
<path d="M5410 1096 c0 -2 7 -7 16 -10 8 -3 12 -2 9 4 -6 10 -25 14 -25 6z"/>
<path d="M6073 1060 c6 -22 15 -40 19 -40 11 0 10 2 -7 44 -20 47 -25 46 -12
-4z"/>
<path d="M4136 1068 c3 -4 11 -5 19 -1 21 7 19 12 -4 10 -11 0 -18 -5 -15 -9z"/>
<path d="M7791 1064 c0 -11 3 -14 6 -6 3 7 2 16 -1 19 -3 4 -6 -2 -5 -13z"/>
<path d="M2550 1060 c-12 -7 -10 -9 8 -7 12 0 22 5 22 9 0 11 -12 10 -30 -2z"/>
<path d="M6120 1061 c0 -6 4 -13 10 -16 6 -3 7 1 4 9 -7 18 -14 21 -14 7z"/>
<path d="M5406 1048 c3 -4 11 -5 19 -1 21 7 19 12 -4 10 -11 0 -18 -5 -15 -9z"/>
<path d="M2465 1031 c-3 -5 -1 -12 4 -15 5 -3 11 1 15 9 6 16 -9 21 -19 6z"/>
<path d="M2540 1022 c0 -9 -8 -24 -17 -35 -17 -19 -17 -19 2 -7 27 16 47 57
28 57 -7 0 -13 -7 -13 -15z"/>
<path d="M4512 1020 c0 -14 2 -19 5 -12 2 6 2 18 0 25 -3 6 -5 1 -5 -13z"/>
<path d="M6135 1020 c-3 -5 -2 -10 4 -10 5 0 13 5 16 10 3 6 2 10 -4 10 -5 0
-13 -4 -16 -10z"/>
<path d="M4407 1013 c-6 -10 -19 -71 -17 -78 1 -4 -10 -22 -25 -41 -14 -19
-23 -34 -19 -34 3 0 1 -6 -5 -14 -9 -11 -9 -16 1 -22 7 -4 10 -4 6 1 -4 4 0
14 10 21 13 10 14 13 3 14 -11 0 -9 4 5 14 10 8 19 18 20 23 0 4 3 15 6 23 4
8 11 34 16 58 9 40 9 52 -1 35z"/>
<path d="M7741 1004 c0 -11 3 -14 6 -6 3 7 2 16 -1 19 -3 4 -6 -2 -5 -13z"/>
<path d="M6155 999 c-4 -6 -5 -12 -2 -15 2 -3 7 2 10 11 7 17 1 20 -8 4z"/>
<path d="M4360 980 c0 -11 2 -20 4 -20 2 0 6 9 9 20 3 11 1 20 -4 20 -5 0 -9
-9 -9 -20z"/>
<path d="M6130 980 c6 -11 13 -20 16 -20 2 0 0 9 -6 20 -6 11 -13 20 -16 20
-2 0 0 -9 6 -20z"/>
<path d="M4513 881 l1 -106 3 100 c3 66 7 95 13 85 7 -12 9 -11 8 6 -1 11 -7
21 -14 21 -8 0 -12 -31 -11 -106z"/>
<path d="M2443 973 c4 -3 1 -13 -6 -22 -11 -14 -10 -14 5 -2 16 12 16 31 1 31
-4 0 -3 -3 0 -7z"/>
<path d="M4770 967 c0 -9 4 -18 9 -21 5 -4 8 1 7 9 -3 21 -16 31 -16 12z"/>
<path d="M6165 969 c-4 -6 -5 -12 -2 -15 2 -3 7 2 10 11 7 17 1 20 -8 4z"/>
<path d="M6711 977 c2 -1 13 -9 24 -17 19 -14 19 -14 6 3 -7 9 -18 17 -24 17
-6 0 -8 -1 -6 -3z"/>
<path d="M2535 960 c-4 -6 -11 -8 -16 -5 -5 4 -9 1 -9 -4 0 -16 16 -13 30 4 7
8 10 15 7 15 -3 0 -9 -5 -12 -10z"/>
<path d="M4717 939 c4 -13 8 -18 11 -10 2 7 -1 18 -6 23 -8 8 -9 4 -5 -13z"/>
<path d="M7321 944 c0 -11 3 -14 6 -6 3 7 2 16 -1 19 -3 4 -6 -2 -5 -13z"/>
<path d="M4741 947 c2 -1 15 -11 29 -22 l25 -20 -19 23 c-11 12 -24 22 -29 22
-6 0 -8 -1 -6 -3z"/>
<path d="M4531 924 c0 -11 3 -14 6 -6 3 7 2 16 -1 19 -3 4 -6 -2 -5 -13z"/>
<path d="M6156 932 c-3 -5 1 -9 9 -9 8 0 15 4 15 9 0 4 -4 8 -9 8 -6 0 -12 -4
-15 -8z"/>
<path d="M2487 923 c-2 -5 -7 -26 -11 -48 -6 -37 -5 -38 7 -17 7 12 16 20 20
17 4 -2 3 1 -3 7 -15 18 -12 36 8 41 15 4 15 5 0 6 -9 0 -19 -2 -21 -6z"/>
<path d="M2411 904 c0 -11 3 -14 6 -6 3 7 2 16 -1 19 -3 4 -6 -2 -5 -13z"/>
<path d="M4750 909 c0 -5 -5 -7 -12 -3 -7 4 -8 3 -4 -4 4 -6 13 -9 21 -6 8 4
12 10 9 15 -7 12 -14 11 -14 -2z"/>
<path d="M6101 904 c0 -11 3 -14 6 -6 3 7 2 16 -1 19 -3 4 -6 -2 -5 -13z"/>
<path d="M6133 864 c-1 -25 1 -42 6 -40 9 6 10 71 1 80 -3 2 -6 -15 -7 -40z"/>
<path d="M6735 900 c3 -5 8 -10 11 -10 2 0 4 5 4 10 0 6 -5 10 -11 10 -5 0 -7
-4 -4 -10z"/>
<path d="M4531 884 c0 -11 3 -14 6 -6 3 7 2 16 -1 19 -3 4 -6 -2 -5 -13z"/>
<path d="M7445 891 c-3 -5 -2 -12 3 -15 5 -3 9 1 9 9 0 17 -3 19 -12 6z"/>
<path d="M3010 857 c0 -9 4 -18 9 -21 5 -4 8 1 7 9 -3 21 -16 31 -16 12z"/>
<path d="M2414 849 c-3 -6 -2 -15 3 -20 5 -5 9 -1 9 11 0 23 -2 24 -12 9z"/>
<path d="M5210 850 c0 -5 5 -10 11 -10 5 0 7 5 4 10 -3 6 -8 10 -11 10 -2 0
-4 -4 -4 -10z"/>
<path d="M7345 850 c3 -5 8 -10 11 -10 2 0 4 5 4 10 0 6 -5 10 -11 10 -5 0 -7
-4 -4 -10z"/>
<path d="M2957 829 c4 -13 8 -18 11 -10 2 7 -1 18 -6 23 -8 8 -9 4 -5 -13z"/>
<path d="M6100 750 c0 -57 3 -100 7 -96 8 8 7 185 -1 193 -3 4 -6 -40 -6 -97z"/>
<path d="M3000 820 c13 -11 26 -18 28 -15 6 6 -28 34 -42 35 -5 0 1 -9 14 -20z"/>
<path d="M5180 831 c0 -11 39 -45 45 -39 3 2 -6 14 -20 26 -14 12 -25 18 -25
13z"/>
<path d="M7561 817 c-13 -21 -12 -21 5 -5 10 10 16 20 13 22 -3 3 -11 -5 -18
-17z"/>
<path d="M2472 810 c0 -14 2 -19 5 -12 2 6 2 18 0 25 -3 6 -5 1 -5 -13z"/>
<path d="M4531 814 c0 -11 3 -14 6 -6 3 7 2 16 -1 19 -3 4 -6 -2 -5 -13z"/>
<path d="M5142 816 c7 -8 16 -12 21 -9 11 7 -2 23 -19 23 -12 0 -12 -2 -2 -14z"/>
<path d="M7345 820 c3 -5 8 -10 11 -10 2 0 4 5 4 10 0 6 -5 10 -11 10 -5 0 -7
-4 -4 -10z"/>
<path d="M2395 774 c0 -31 4 -44 14 -44 10 0 11 3 2 14 -9 10 -9 16 -1 21 8 5
7 11 -2 22 -7 9 -11 18 -10 20 2 3 2 6 0 8 -1 2 -3 -17 -3 -41z"/>
<path d="M4315 810 c3 -6 1 -10 -6 -10 -7 0 -9 -3 -6 -6 3 -4 2 -15 -3 -25 -7
-12 -6 -20 2 -25 6 -4 8 -3 4 4 -3 6 -2 13 4 17 5 3 14 14 20 25 7 13 6 19 -6
24 -8 3 -12 2 -9 -4z"/>
<path d="M7474 787 c-26 -43 -36 -70 -24 -62 6 3 10 13 10 21 0 8 5 12 10 9 6
-3 10 2 10 12 0 11 5 24 12 31 6 6 9 14 7 17 -3 2 -14 -10 -25 -28z"/>
<path d="M2976 788 c3 -4 11 -5 19 -1 21 7 19 12 -4 10 -11 0 -18 -5 -15 -9z"/>
<path d="M5179 793 c0 -4 -2 -16 -4 -25 -2 -10 1 -18 7 -18 6 0 8 6 5 14 -3 8
-1 16 6 19 8 2 8 5 -1 11 -7 4 -12 4 -13 -1z"/>
<path d="M7065 780 c10 -11 20 -20 23 -20 3 0 -3 9 -13 20 -10 11 -20 20 -23
20 -3 0 3 -9 13 -20z"/>
<path d="M7346 788 c3 -5 10 -6 15 -3 13 9 11 12 -6 12 -8 0 -12 -4 -9 -9z"/>
<path d="M7400 674 c0 -71 4 -134 8 -141 4 -6 6 49 6 124 -1 74 -5 137 -8 140
-3 4 -6 -52 -6 -123z"/>
<path d="M3353 772 c5 -20 2 -22 -16 -17 -21 6 -21 6 -2 -6 11 -7 23 -17 27
-23 4 -5 6 4 4 22 -1 17 -6 35 -11 39 -4 4 -5 -2 -2 -15z"/>
<path d="M4532 770 c0 -14 2 -19 5 -12 2 6 2 18 0 25 -3 6 -5 1 -5 -13z"/>
<path d="M5140 780 c0 -5 5 -10 11 -10 5 0 7 5 4 10 -3 6 -8 10 -11 10 -2 0
-4 -4 -4 -10z"/>
<path d="M6132 673 c1 -200 -1 -235 -12 -228 -5 3 -10 1 -10 -4 0 -13 11 -14
25 -3 11 8 14 336 3 347 -3 4 -6 -47 -6 -112z"/>
<path d="M2472 755 c0 -16 2 -22 5 -12 2 9 2 23 0 30 -3 6 -5 -1 -5 -18z"/>
<path d="M3297 749 c4 -13 8 -18 11 -10 2 7 -1 18 -6 23 -8 8 -9 4 -5 -13z"/>
<path d="M6957 749 c12 -12 24 -21 27 -18 2 2 -8 13 -22 23 l-27 19 22 -24z"/>
<path d="M7340 758 c0 -4 4 -8 9 -8 6 0 12 4 15 8 3 5 -1 9 -9 9 -8 0 -15 -4
-15 -9z"/>
<path d="M7516 751 c-4 -5 -2 -12 3 -15 5 -4 12 -2 15 3 4 5 2 12 -3 15 -5 4
-12 2 -15 -3z"/>
<path d="M4233 713 c-14 -29 -8 -47 7 -23 9 13 14 50 8 50 -2 0 -9 -12 -15
-27z"/>
<path d="M4517 720 c3 -11 7 -20 8 -20 1 0 5 9 8 20 3 12 0 20 -8 20 -8 0 -11
-8 -8 -20z"/>
<path d="M3330 719 c0 -5 -5 -7 -12 -3 -7 4 -8 3 -4 -4 4 -6 13 -9 21 -6 8 4
12 10 9 15 -7 12 -14 11 -14 -2z"/>
<path d="M2400 699 c7 -11 9 -23 6 -26 -6 -6 18 -33 30 -33 3 0 1 7 -6 15 -7
8 -10 21 -7 29 3 7 0 19 -6 25 -18 18 -28 12 -17 -10z"/>
<path d="M4465 710 c-3 -5 -1 -10 4 -10 6 0 11 5 11 10 0 6 -2 10 -4 10 -3 0
-8 -4 -11 -10z"/>
<path d="M7070 716 c0 -2 7 -7 16 -10 8 -3 12 -2 9 4 -6 10 -25 14 -25 6z"/>
<path d="M7500 710 c-8 -5 -10 -10 -5 -10 6 0 17 5 25 10 8 5 11 10 5 10 -5 0
-17 -5 -25 -10z"/>
<path d="M2471 694 c0 -11 3 -14 6 -6 3 7 2 16 -1 19 -3 4 -6 -2 -5 -13z"/>
<path d="M4261 691 c-8 -6 -9 -11 -3 -15 6 -3 14 -1 17 5 9 14 2 20 -14 10z"/>
<path d="M7069 686 c13 -16 51 -41 51 -33 0 2 -15 14 -32 27 -21 15 -28 17
-19 6z"/>
<path d="M4452 681 c-16 -10 -14 -208 3 -214 6 -3 10 34 10 109 0 63 0 114 0
114 0 0 -6 -4 -13 -9z"/>
<path d="M4176 663 c-6 -14 -5 -15 5 -6 7 7 10 15 7 18 -3 3 -9 -2 -12 -12z"/>
<path d="M2450 651 c0 -6 4 -13 10 -16 6 -3 7 1 4 9 -7 18 -14 21 -14 7z"/>
<path d="M4515 650 c3 -5 8 -10 11 -10 2 0 4 5 4 10 0 6 -5 10 -11 10 -5 0 -7
-4 -4 -10z"/>
<path d="M7040 657 c0 -2 15 -14 33 -27 20 -15 27 -17 18 -6 -13 16 -51 41
-51 33z"/>
<path d="M4226 624 c-4 -9 -4 -19 -1 -22 2 -3 7 3 11 12 4 9 4 19 1 22 -2 3
-7 -3 -11 -12z"/>
<path d="M4500 636 c0 -2 7 -9 15 -16 9 -7 15 -8 15 -2 0 5 -7 12 -15 16 -8 3
-15 4 -15 2z"/>
<path d="M2437 609 c4 -13 8 -18 11 -10 2 7 -1 18 -6 23 -8 8 -9 4 -5 -13z"/>
<path d="M5780 617 c0 -9 4 -18 9 -21 5 -4 8 1 7 9 -3 21 -16 31 -16 12z"/>
<path d="M6100 601 c0 -25 6 -27 13 -6 4 8 2 17 -3 20 -6 4 -10 -3 -10 -14z"/>
<path d="M4179 593 c-13 -16 -12 -17 4 -4 16 13 21 21 13 21 -2 0 -10 -8 -17
-17z"/>
<path d="M4500 606 c0 -2 7 -9 15 -16 9 -7 15 -8 15 -2 0 5 -7 12 -15 16 -8 3
-15 4 -15 2z"/>
<path d="M5727 589 c4 -13 8 -18 11 -10 2 7 -1 18 -6 23 -8 8 -9 4 -5 -13z"/>
<path d="M7270 606 c0 -2 8 -10 18 -17 15 -13 16 -12 3 4 -13 16 -21 21 -21
13z"/>
<path d="M5030 587 c0 -9 4 -18 9 -21 5 -4 8 1 7 9 -3 21 -16 31 -16 12z"/>
<path d="M5770 580 c13 -11 26 -18 28 -15 6 6 -28 34 -42 35 -5 0 1 -9 14 -20z"/>
<path d="M2457 553 c9 -16 32 -47 50 -69 18 -23 29 -45 25 -49 -4 -5 -1 -5 6
-1 7 4 12 1 12 -9 0 -9 5 -13 10 -10 6 4 -7 26 -31 53 -23 26 -48 62 -57 80
-9 17 -19 32 -24 32 -5 0 -1 -12 9 -27z"/>
<path d="M4500 576 c0 -2 7 -9 15 -16 9 -7 15 -8 15 -2 0 5 -7 12 -15 16 -8 3
-15 4 -15 2z"/>
<path d="M4977 559 c4 -13 8 -18 11 -10 2 7 -1 18 -6 23 -8 8 -9 4 -5 -13z"/>
<path d="M7321 564 c0 -11 3 -14 6 -6 3 7 2 16 -1 19 -3 4 -6 -2 -5 -13z"/>
<path d="M5000 566 c0 -2 7 -7 16 -10 8 -3 12 -2 9 4 -6 10 -25 14 -25 6z"/>
<path d="M5463 552 c5 -20 2 -22 -16 -17 -21 6 -21 6 -2 -6 11 -7 23 -17 27
-23 4 -5 6 4 4 22 -1 17 -6 35 -11 39 -4 4 -5 -2 -2 -15z"/>
<path d="M6100 551 c0 -25 6 -27 13 -6 4 8 2 17 -3 20 -6 4 -10 -3 -10 -14z"/>
<path d="M5746 548 c3 -4 11 -5 19 -1 21 7 19 12 -4 10 -11 0 -18 -5 -15 -9z"/>
<path d="M7286 547 c3 -10 9 -15 12 -12 3 3 0 11 -7 18 -10 9 -11 8 -5 -6z"/>
<path d="M5407 529 c4 -13 8 -18 11 -10 2 7 -1 18 -6 23 -8 8 -9 4 -5 -13z"/>
<path d="M7250 541 c0 -5 7 -12 16 -15 14 -5 15 -4 4 9 -14 17 -20 19 -20 6z"/>
<path d="M7354 535 c5 -15 -4 -19 -34 -16 -13 2 -13 0 -1 -8 20 -13 52 5 45
24 -4 8 -8 15 -11 15 -3 0 -3 -7 1 -15z"/>
<path d="M4145 530 c3 -5 10 -10 16 -10 5 0 9 5 9 10 0 6 -7 10 -16 10 -8 0
-12 -4 -9 -10z"/>
<path d="M4515 530 c3 -5 8 -10 11 -10 2 0 4 5 4 10 0 6 -5 10 -11 10 -5 0 -7
-4 -4 -10z"/>
<path d="M5010 529 c0 -5 -5 -7 -12 -3 -7 4 -8 3 -4 -4 4 -6 13 -9 21 -6 8 4
12 10 9 15 -7 12 -14 11 -14 -2z"/>
<path d="M6097 513 c-10 -9 -9 -23 1 -23 5 0 9 7 9 15 0 17 -1 18 -10 8z"/>
<path d="M4105 499 c-3 -4 2 -6 10 -5 21 3 28 13 10 13 -9 0 -18 -4 -20 -8z"/>
<path d="M4520 494 c0 -10 5 -26 10 -34 8 -11 9 -7 4 15 -8 37 -14 45 -14 19z"/>
<path d="M5440 499 c0 -5 -5 -7 -12 -3 -7 4 -8 3 -4 -4 4 -6 13 -9 21 -6 8 4
12 10 9 15 -7 12 -14 11 -14 -2z"/>
<path d="M7305 490 c10 -11 20 -20 23 -20 3 0 -3 9 -13 20 -10 11 -20 20 -23
20 -3 0 3 -9 13 -20z"/>
<path d="M7260 491 c0 -6 4 -13 10 -16 6 -3 7 1 4 9 -7 18 -14 21 -14 7z"/>
<path d="M7395 490 c3 -5 8 -10 11 -10 2 0 4 5 4 10 0 6 -5 10 -11 10 -5 0 -7
-4 -4 -10z"/>
<path d="M2460 486 c0 -2 8 -10 18 -17 15 -13 16 -12 3 4 -13 16 -21 21 -21
13z"/>
<path d="M4100 469 c0 -5 5 -7 10 -4 6 3 10 8 10 11 0 2 -4 4 -10 4 -5 0 -10
-5 -10 -11z"/>
<path d="M2490 446 c0 -2 8 -10 18 -17 15 -13 16 -12 3 4 -13 16 -21 21 -21
13z"/>
<path d="M4056 435 c4 -8 8 -15 10 -15 2 0 4 7 4 15 0 8 -4 15 -10 15 -5 0 -7
-7 -4 -15z"/>
<path d="M4085 440 c3 -5 8 -10 11 -10 2 0 4 5 4 10 0 6 -5 10 -11 10 -5 0 -7
-4 -4 -10z"/>
<path d="M6077 433 c-4 -3 -7 -11 -7 -17 0 -6 5 -5 12 2 6 6 9 14 7 17 -3 3
-9 2 -12 -2z"/>
<path d="M7440 436 c0 -2 8 -10 18 -17 15 -13 16 -12 3 4 -13 16 -21 21 -21
13z"/>
<path d="M2594 421 c4 -6 2 -11 -5 -11 -23 0 -4 -9 31 -15 36 -5 33 0 -14 26
-13 8 -17 8 -12 0z"/>
<path d="M4027 420 c11 -11 8 -19 -13 -41 -16 -17 -22 -29 -15 -33 6 -4 11 -2
11 5 0 7 9 22 20 34 20 21 20 23 3 36 -15 11 -16 11 -6 -1z"/>
<path d="M4460 426 c0 -2 8 -10 18 -17 15 -13 16 -12 3 4 -13 16 -21 21 -21
13z"/>
<path d="M6103 414 c3 -4 2 -15 -4 -25 -6 -13 -6 -19 1 -19 5 0 10 4 10 9 0 5
3 16 6 25 4 10 1 16 -7 16 -7 0 -9 -3 -6 -6z"/>
<path d="M7330 416 c0 -2 8 -10 18 -17 15 -13 16 -12 3 4 -13 16 -21 21 -21
13z"/>
<path d="M2548 381 c19 -18 38 -29 45 -24 7 4 2 11 -14 17 -15 6 -35 17 -45
25 -10 7 -4 -1 14 -18z"/>
<path d="M3916 373 c-6 -14 -5 -15 5 -6 7 7 10 15 7 18 -3 3 -9 -2 -12 -12z"/>
<path d="M3975 380 c3 -5 8 -10 11 -10 2 0 4 5 4 10 0 6 -5 10 -11 10 -5 0 -7
-4 -4 -10z"/>
<path d="M4490 387 c0 -21 36 -74 82 -121 60 -61 61 -47 1 17 -23 25 -51 60
-62 78 -12 19 -21 30 -21 26z"/>
<path d="M7400 386 c0 -2 8 -10 18 -17 15 -13 16 -12 3 4 -13 16 -21 21 -21
13z"/>
<path d="M2660 365 c28 -16 60 -19 60 -6 0 5 -9 7 -20 4 -11 -3 -20 0 -20 6 0
6 -10 11 -22 11 -23 -1 -23 -1 2 -15z"/>
<path d="M3948 358 c-8 -19 28 -43 38 -26 4 7 3 8 -5 4 -7 -4 -14 2 -19 15 -7
17 -10 19 -14 7z"/>
<path d="M2769 337 c6 -6 27 -11 48 -13 21 -1 30 0 20 3 -9 2 -15 8 -13 11 2
4 -11 8 -30 8 -23 0 -31 -3 -25 -9z"/>
<path d="M6076 342 c-3 -5 1 -9 9 -9 8 0 12 4 9 9 -3 4 -7 8 -9 8 -2 0 -6 -4
-9 -8z"/>
<path d="M7400 331 c0 -6 4 -13 10 -16 6 -3 7 1 4 9 -7 18 -14 21 -14 7z"/>
<path d="M2730 310 c0 -5 5 -10 11 -10 5 0 7 5 4 10 -3 6 -8 10 -11 10 -2 0
-4 -4 -4 -10z"/>
<path d="M2869 307 c6 -8 7 -18 3 -22 -4 -5 -2 -5 5 -1 14 8 6 36 -9 36 -7 0
-6 -5 1 -13z"/>
<path d="M6074 301 c0 -11 4 -17 8 -15 4 3 8 12 8 20 0 8 -4 14 -8 14 -4 0 -8
-9 -8 -19z"/>
<path d="M2910 300 c0 -9 6 -11 49 -14 8 -1 16 -7 19 -14 4 -14 38 -16 47 -2
3 6 -1 7 -10 4 -9 -4 -24 1 -35 11 -10 9 -24 14 -29 10 -6 -3 -11 -1 -11 4 0
6 -7 11 -15 11 -8 0 -15 -4 -15 -10z"/>
<path d="M3940 299 c0 -5 5 -7 10 -4 6 3 10 8 10 11 0 2 -4 4 -10 4 -5 0 -10
-5 -10 -11z"/>
<path d="M2777 283 c5 -12 7 -12 14 -1 6 8 9 9 9 1 0 -6 9 -9 20 -6 27 7 21
13 -18 17 -24 4 -30 1 -25 -11z"/>
<path d="M4510 290 c0 -5 5 -10 11 -10 5 0 7 5 4 10 -3 6 -8 10 -11 10 -2 0
-4 -4 -4 -10z"/>
<path d="M6030 269 c0 -5 5 -7 10 -4 6 3 10 8 10 11 0 2 -4 4 -10 4 -5 0 -10
-5 -10 -11z"/>
<path d="M3070 259 c0 -5 12 -11 28 -15 15 -3 40 -10 56 -15 16 -5 38 -9 49
-9 20 0 20 0 2 14 -11 8 -25 12 -31 9 -7 -2 -15 1 -19 6 -3 6 -10 9 -14 6 -5
-2 -22 0 -40 5 -18 5 -31 5 -31 -1z"/>
<path d="M3887 255 c-4 -8 -3 -16 1 -19 4 -3 9 4 9 15 2 23 -3 25 -10 4z"/>
<path d="M7455 260 c3 -5 8 -10 11 -10 2 0 4 5 4 10 0 6 -5 10 -11 10 -5 0 -7
-4 -4 -10z"/>
<path d="M2886 248 c3 -4 11 -5 19 -1 21 7 19 12 -4 10 -11 0 -18 -5 -15 -9z"/>
<path d="M2940 244 c0 -8 4 -12 10 -9 5 3 21 -2 35 -11 14 -9 25 -12 25 -8 0
5 -16 17 -35 26 -31 15 -35 16 -35 2z"/>
<path d="M3253 241 c0 -11 5 -18 9 -15 4 3 5 11 1 19 -7 21 -12 19 -10 -4z"/>
<path d="M3346 242 c-4 -7 -4 -12 1 -13 4 0 19 -2 33 -5 18 -3 21 -2 10 5 -8
5 -17 8 -21 5 -4 -2 -9 1 -11 8 -3 9 -6 9 -12 0z"/>
<path d="M3426 236 c7 -18 34 -22 34 -4 0 6 -3 8 -7 5 -3 -4 -12 -2 -20 5 -11
8 -12 7 -7 -6z"/>
<path d="M3509 233 c-12 -16 -12 -17 2 -6 12 10 18 10 29 0 12 -10 12 -9 1 6
-7 9 -15 17 -16 17 -1 0 -9 -8 -16 -17z"/>
<path d="M3620 240 c0 -5 -8 -7 -17 -3 -11 4 -15 2 -10 -3 5 -5 19 -9 32 -9
19 -1 22 2 13 12 -13 15 -18 16 -18 3z"/>
<path d="M4540 247 c0 -2 15 -16 33 -33 l32 -29 -29 33 c-28 30 -36 37 -36 29z"/>
<path d="M5320 237 c0 -9 4 -18 9 -21 5 -4 8 1 7 9 -3 21 -16 31 -16 12z"/>
<path d="M3296 228 c3 -5 10 -6 15 -3 13 9 11 12 -6 12 -8 0 -12 -4 -9 -9z"/>
<path d="M3470 230 c0 -5 5 -10 11 -10 5 0 7 5 4 10 -3 6 -8 10 -11 10 -2 0
-4 -4 -4 -10z"/>
<path d="M3680 230 c0 -5 5 -10 11 -10 5 0 7 5 4 10 -3 6 -8 10 -11 10 -2 0
-4 -4 -4 -10z"/>
<path d="M7590 236 c0 -2 8 -10 18 -17 15 -13 16 -12 3 4 -13 16 -21 21 -21
13z"/>
<path d="M3060 219 c0 -5 5 -7 10 -4 6 3 10 8 10 11 0 2 -4 4 -10 4 -5 0 -10
-5 -10 -11z"/>
<path d="M3823 223 c4 -3 2 -12 -4 -19 -7 -8 -7 -14 1 -19 6 -4 9 -1 8 7 -2 7
3 12 11 10 12 -3 12 0 1 12 -7 9 -15 16 -18 16 -3 0 -2 -3 1 -7z"/>
<path d="M5267 209 c4 -13 8 -18 11 -10 2 7 -1 18 -6 23 -8 8 -9 4 -5 -13z"/>
<path d="M5290 216 c0 -2 7 -7 16 -10 8 -3 12 -2 9 4 -6 10 -25 14 -25 6z"/>
<path d="M7530 214 c0 -4 16 -24 35 -45 19 -22 35 -36 35 -33 0 4 -16 24 -35
45 -19 22 -35 36 -35 33z"/>
<path d="M4620 204 c0 -5 4 -13 8 -19 11 -15 70 -55 82 -55 5 0 10 -5 10 -11
0 -7 10 -9 25 -5 20 5 23 3 18 -10 -5 -13 -2 -15 15 -9 23 7 31 -10 10 -18 -7
-3 1 -6 18 -6 16 -1 35 -6 42 -13 6 -6 14 -9 17 -6 4 3 -8 12 -24 19 -17 8
-31 20 -31 26 0 7 -7 13 -16 13 -8 0 -13 4 -10 8 3 5 0 9 -7 9 -21 0 -97 55
-90 66 3 6 1 7 -6 3 -9 -6 -9 -11 0 -22 20 -24 -4 -15 -33 13 -15 15 -28 23
-28 17z m110 -65 l25 -20 -32 16 c-18 8 -33 18 -33 20 0 10 16 4 40 -16z"/>
<path d="M6014 198 c-4 -7 -3 -10 1 -5 5 4 20 -3 34 -15 l26 -23 -24 28 c-28
31 -28 31 -37 15z"/>
<path d="M3228 171 c4 -10 7 -11 10 -3 2 7 8 12 13 12 6 0 7 -6 3 -12 -5 -9
-2 -9 9 1 22 17 22 17 -12 17 -22 0 -28 -3 -23 -15z"/>
<path d="M3414 183 c10 -10 76 -11 82 -1 3 4 -16 8 -42 8 -26 0 -44 -3 -40 -7z"/>
<path d="M3525 182 c3 -3 21 -6 41 -8 19 -1 32 1 29 4 -4 4 -22 7 -41 8 -19 0
-32 -2 -29 -4z"/>
<path d="M3706 178 c3 -4 12 -4 21 -1 12 5 14 3 8 -7 -5 -9 -4 -11 4 -6 16 10
4 25 -19 23 -10 -1 -17 -5 -14 -9z"/>
<path d="M5300 179 c0 -5 -5 -7 -12 -3 -7 4 -8 3 -4 -4 4 -6 13 -9 21 -6 8 4
12 10 9 15 -7 12 -14 11 -14 -2z"/>
<path d="M6031 158 c-1 -10 -6 -18 -12 -18 -5 0 -7 -5 -3 -11 9 -15 28 16 20
34 -2 7 -5 4 -5 -5z"/>
<path d="M4640 131 c19 -16 37 -28 39 -25 5 5 -24 29 -54 45 -11 6 -4 -3 15
-20z"/>
<path d="M4845 100 c3 -5 11 -10 16 -10 6 0 7 5 4 10 -3 6 -11 10 -16 10 -6 0
-7 -4 -4 -10z"/>
<path d="M4690 90 c0 -5 6 -10 13 -10 8 0 33 -13 55 -30 23 -16 45 -30 49 -30
10 0 -56 48 -89 66 -17 8 -28 10 -28 4z"/>
<path d="M4886 45 c5 -11 1 -14 -12 -9 -15 5 -16 4 -5 -4 19 -13 41 -4 34 14
-3 8 -9 14 -14 14 -4 0 -6 -7 -3 -15z"/>
<path d="M7675 35 c0 -13 2 -26 5 -29 3 -3 6 5 5 19 0 13 -2 26 -5 29 -3 3 -6
-5 -5 -19z"/>
<path d="M5003 24 c-7 -7 -9 -15 -5 -17 4 -3 13 1 19 9 7 7 9 15 5 17 -4 3
-13 -1 -19 -9z"/>
<path d="M5865 30 c-3 -6 1 -7 9 -4 18 7 21 14 7 14 -6 0 -13 -4 -16 -10z"/>
<path d="M5964 25 c-4 -8 -11 -12 -17 -8 -6 3 -7 1 -3 -5 9 -15 9 -15 29 8 9
11 12 20 7 20 -6 0 -13 -7 -16 -15z"/>
<path d="M4960 21 c0 -5 -8 -12 -17 -14 -10 -3 -6 -4 10 -4 27 1 35 11 17 22
-5 3 -10 2 -10 -4z"/>
</g>
</svg>
